<svg xmlns="http://www.w3.org/2000/svg" style="display:none">
<!-- INGLY ICON SYSTEM — outline, tratto 2.5, angoli arrotondati, colore ereditato (currentColor).
     Uso: <svg class="ic-svg"><use href="assets/icons/ingly-icons.svg#ic-casa"></use></svg> -->
<defs>
  <style>
    symbol{fill:none;stroke:currentColor;stroke-width:2.1;stroke-linecap:round;stroke-linejoin:round}
    symbol .fill{fill:currentColor;stroke:none}
    symbol .thin{stroke-width:1.5}
  </style>
</defs>

<!-- ============ NAVIGAZIONE ============ -->
<symbol id="ic-home" viewBox="0 0 24 24"><path d="M3.5 10.5 12 3.5l8.5 7"/><path d="M5.5 9.6V20h13V9.6"/><path d="M9.8 20v-5.4h4.4V20"/></symbol>
<symbol id="ic-shop" viewBox="0 0 24 24"><path d="M4.5 7.5h15L18.4 20H5.6L4.5 7.5Z"/><path d="M8.6 10V6.6a3.4 3.4 0 0 1 6.8 0V10"/></symbol>
<symbol id="ic-portfolio" viewBox="0 0 24 24"><rect x="3.2" y="5" width="17.6" height="14" rx="2.4"/><circle cx="8.6" cy="9.9" r="1.6"/><path d="m3.6 16.4 4.6-4 4 3.4 3.2-2.7 4.4 3.7"/></symbol>
<symbol id="ic-digital" viewBox="0 0 24 24"><path d="M13.6 3.2H6.8A2.3 2.3 0 0 0 4.5 5.5v13a2.3 2.3 0 0 0 2.3 2.3h10.4a2.3 2.3 0 0 0 2.3-2.3V8.9Z"/><path d="M13.6 3.2v5.7h5.9"/><path d="m9.6 12.6-1.8 2 1.8 2m4.8-4 1.8 2-1.8 2"/></symbol>
<symbol id="ic-b2b" viewBox="0 0 24 24"><rect x="2.8" y="7.4" width="18.4" height="12.4" rx="2.2"/><path d="M8.8 7.4V5.8a2 2 0 0 1 2-2h2.4a2 2 0 0 1 2 2v1.6"/><path d="M2.8 12.6h18.4M12 11.6v2"/></symbol>
<symbol id="ic-about" viewBox="0 0 24 24"><circle cx="12" cy="12" r="8.8"/><path d="M12 11v5.4"/><circle class="fill" cx="12" cy="7.9" r="1.15"/></symbol>
<symbol id="ic-faq" viewBox="0 0 24 24"><circle cx="12" cy="12" r="8.8"/><path d="M9.5 9.4a2.6 2.6 0 0 1 5 .9c0 1.8-2.5 2-2.5 3.6"/><circle class="fill" cx="12" cy="16.7" r="1.15"/></symbol>
<symbol id="ic-quote" viewBox="0 0 24 24"><path d="M14 3.4H7.2A2.2 2.2 0 0 0 5 5.6v12.8a2.2 2.2 0 0 0 2.2 2.2h9.6a2.2 2.2 0 0 0 2.2-2.2V8.4Z"/><path d="M14 3.4v5h5"/><path d="M14.2 12.4a2.8 2.8 0 0 0-4.6 2.2 2.8 2.8 0 0 0 4.6 2.2M8.6 14h4.2"/></symbol>
<symbol id="ic-contact" viewBox="0 0 24 24"><rect x="2.8" y="5" width="18.4" height="14" rx="2.4"/><path d="m3.6 7 8.4 6 8.4-6"/></symbol>
<symbol id="ic-cart" viewBox="0 0 24 24"><path d="M2.6 3.6h2.6l2.5 11.2h9.9l2.2-8.1H6.3"/><circle cx="9.2" cy="19" r="1.6"/><circle cx="16.8" cy="19" r="1.6"/></symbol>
<symbol id="ic-search" viewBox="0 0 24 24"><circle cx="10.8" cy="10.8" r="6.6"/><path d="m15.6 15.6 4.4 4.4"/></symbol>
<symbol id="ic-user" viewBox="0 0 24 24"><circle cx="12" cy="8.4" r="3.8"/><path d="M4.8 20a7.2 7.2 0 0 1 14.4 0"/></symbol>

<!-- ============ CATEGORIE PRODOTTI ============ -->
<symbol id="ic-casa" viewBox="0 0 24 24"><path d="M3.6 10.4 12 3.8l8.4 6.6"/><path d="M5.6 9.5V20h12.8V9.5"/><rect x="9.4" y="13" width="5.2" height="7"/></symbol>
<symbol id="ic-eventi" viewBox="0 0 24 24"><path d="M4 20.2 8.6 8.4l7 7L4 20.2Z"/><path d="M12.6 7.6a3 3 0 0 1 3-3M16.4 11a3 3 0 0 1 3-3M15.6 4.2V3M20 8.6h1.2M18.6 5.4l.9-.9"/></symbol>
<symbol id="ic-animali" viewBox="0 0 24 24"><ellipse cx="12" cy="15.4" rx="4.2" ry="3.6"/><ellipse cx="6.2" cy="10.4" rx="2" ry="2.4"/><ellipse cx="17.8" cy="10.4" rx="2" ry="2.4"/><ellipse cx="9.4" cy="6.6" rx="1.9" ry="2.3"/><ellipse cx="14.6" cy="6.6" rx="1.9" ry="2.3"/></symbol>
<symbol id="ic-accessori" viewBox="0 0 24 24"><path d="M20.2 12.6 12.6 20.2a1.9 1.9 0 0 1-2.7 0L3.8 14a1.9 1.9 0 0 1-.5-1.6l.8-6.2a1.9 1.9 0 0 1 1.7-1.7l6.2-.8a1.9 1.9 0 0 1 1.6.5l6.6 6.6a1.9 1.9 0 0 1 0 2.7Z"/><circle class="fill" cx="8.6" cy="8.6" r="1.5"/></symbol>
<symbol id="ic-aziendale" viewBox="0 0 24 24"><path d="M4 20V5.4A1.4 1.4 0 0 1 5.4 4h7.2A1.4 1.4 0 0 1 14 5.4V20"/><path d="M14 9.4h4.6A1.4 1.4 0 0 1 20 10.8V20"/><path d="M2.6 20h18.8M7 8h4M7 11.6h4M7 15.2h4M16.6 13h1M16.6 16.4h1"/></symbol>
<symbol id="ic-bambini" viewBox="0 0 24 24"><circle cx="12" cy="13.4" r="6"/><circle cx="6.4" cy="6.6" r="2.6"/><circle cx="17.6" cy="6.6" r="2.6"/><path class="fill" d="M10 12.6a.9.9 0 1 1-1.8 0 .9.9 0 0 1 1.8 0Zm5.8 0a.9.9 0 1 1-1.8 0 .9.9 0 0 1 1.8 0Z"/><path d="M10.2 16.2a2.6 2.6 0 0 0 3.6 0"/></symbol>
<symbol id="ic-stagionale" viewBox="0 0 24 24"><path d="M12 2.8v18.4M4 7.4l16 9.2M20 7.4 4 16.6"/><path d="M12 6.4 9.8 4.4M12 6.4l2.2-2M12 17.6l-2.2 2M12 17.6l2.2 2M7.4 9.6 4.6 9M7.4 14.4l-2.8.6M16.6 9.6l2.8-.6M16.6 14.4l2.8.6"/></symbol>
<symbol id="ic-digitale" viewBox="0 0 24 24"><rect x="3.4" y="3.4" width="17.2" height="17.2" rx="2.2"/><path d="M7.6 3.4v5.6h8.8V3.4"/><rect x="7.6" y="13" width="8.8" height="7.6"/></symbol>
<symbol id="ic-custom" viewBox="0 0 24 24"><path d="M14.8 6.2a3.9 3.9 0 0 0 5.1 5.1L21 12.5a5.4 5.4 0 0 1-7.6 7.6L3.4 10.1A5.4 5.4 0 0 1 11 2.5Z"/><path d="m8.4 8.4 6.8 6.8"/></symbol>
<symbol id="ic-limited" viewBox="0 0 24 24"><path d="m12 3 2.7 5.6 6.1.8-4.5 4.3 1.2 6.1L12 16.9 6.5 19.8l1.2-6.1-4.5-4.3 6.1-.8L12 3Z"/></symbol>

<!-- ============ TECNOLOGIE & MATERIALI ============ -->
<symbol id="ic-tecnologie" viewBox="0 0 24 24"><path d="M12 2.6v6M12 15.4v6M2.6 12h6M15.4 12h6"/><path d="m5.6 5.6 3.6 3.6M14.8 14.8l3.6 3.6M18.4 5.6l-3.6 3.6M9.2 14.8l-3.6 3.6"/><circle cx="12" cy="12" r="2.8"/></symbol>
<symbol id="ic-laser" viewBox="0 0 24 24"><path d="M12 2.4v7.2"/><path d="M8.4 9.6h7.2l-2 4.2h-3.2Z"/><path d="M12 13.8v7.8"/><path d="M6.8 19.4h10.4"/><path d="M9.4 5.6 7.6 3.8M14.6 5.6l1.8-1.8"/></symbol>
<symbol id="ic-uv" viewBox="0 0 24 24"><circle cx="12" cy="12" r="8.8"/><path d="M8.4 8.8v4.4a1.9 1.9 0 0 0 3.8 0V8.8M13.6 8.8l1.6 6.4 1.6-6.4"/></symbol>
<symbol id="ic-dtf" viewBox="0 0 24 24"><path d="M8.6 3.4 4 6l1.8 4 2-.8V20h8.4V9.2l2 .8L20 6l-4.6-2.6a3.5 3.5 0 0 1-6.8 0Z"/></symbol>
<symbol id="ic-3d" viewBox="0 0 24 24"><path d="M12 2.8 3.8 7v10L12 21.2 20.2 17V7L12 2.8Z"/><path d="M3.8 7 12 11.4 20.2 7M12 11.4v9.8"/></symbol>
<symbol id="ic-incisione" viewBox="0 0 24 24"><path d="M4 20.2 5.4 15 15.9 4.5a2.2 2.2 0 0 1 3.1 0l1.1 1.1a2.2 2.2 0 0 1 0 3.1L9.6 19.2Z"/><path d="m14.6 5.8 3.6 3.6M5.4 15l3.6 3.6"/></symbol>
<symbol id="ic-taglio" viewBox="0 0 24 24"><circle cx="6.4" cy="17.6" r="2.6"/><circle cx="17.6" cy="17.6" r="2.6"/><path d="M8.4 15.8 19 4.2M15.6 15.8 5 4.2"/></symbol>
<symbol id="ic-stampa" viewBox="0 0 24 24"><path d="M6.6 9.2V3.8h10.8v5.4"/><rect x="3.4" y="9.2" width="17.2" height="7.4" rx="1.8"/><path d="M6.6 13.6h10.8v6.6H6.6z"/><circle class="fill" cx="17.4" cy="12.2" r="1"/></symbol>
<symbol id="ic-legno" viewBox="0 0 24 24"><rect x="3.4" y="4.6" width="17.2" height="14.8" rx="2"/><path d="M7 4.6c1.6 3 1.6 11.8 0 14.8M11.4 4.6c2 3.4 2 11.4 0 14.8M15.8 4.6c1.4 3.2 1.4 11.6 0 14.8"/></symbol>
<symbol id="ic-materiali" viewBox="0 0 24 24"><path d="m12 3.2 8.8 4.4L12 12 3.2 7.6 12 3.2Z"/><path d="m3.2 12.2 8.8 4.4 8.8-4.4M3.2 16.6 12 21l8.8-4.4"/></symbol>
<symbol id="ic-metallo" viewBox="0 0 24 24"><rect x="3.2" y="6" width="17.6" height="12" rx="1.8"/><path d="M6.6 6v12M13.4 6v12M20.8 9.6H3.2M20.8 14.4H3.2"/></symbol>

<!-- ============ SISTEMA / SOCIAL ============ -->
<symbol id="ic-instagram" viewBox="0 0 24 24"><rect x="3.4" y="3.4" width="17.2" height="17.2" rx="4.6"/><circle cx="12" cy="12" r="4.1"/><circle class="fill" cx="17" cy="7" r="1.15"/></symbol>
<symbol id="ic-whatsapp" viewBox="0 0 24 24"><path d="M3.4 20.6 4.8 16a8.6 8.6 0 1 1 3.3 3.2Z"/><path d="M9 8.6c.5-.1.8.1 1 .5l.7 1.6c.1.3 0 .5-.2.7l-.6.6a6.3 6.3 0 0 0 2.9 2.9l.6-.7c.2-.2.4-.3.7-.2l1.7.7c.4.2.5.5.5.9a2 2 0 0 1-1.8 1.7c-3 .2-6.7-3.4-6.6-6.6A2 2 0 0 1 9 8.6Z"/></symbol>
<symbol id="ic-check" viewBox="0 0 24 24"><circle cx="12" cy="12" r="8.8"/><path d="m8.2 12.2 2.6 2.6 5-5.2"/></symbol>
<symbol id="ic-truck" viewBox="0 0 24 24"><path d="M2.8 6.4h10.4v10.2H2.8z"/><path d="M13.2 9.8h3.6l3.4 3.2v3.6h-7z"/><circle cx="7" cy="18.2" r="1.9"/><circle cx="17" cy="18.2" r="1.9"/></symbol>
<symbol id="ic-shield" viewBox="0 0 24 24"><path d="M12 3 4.8 6v5.4c0 4.3 3 8.2 7.2 9.4 4.2-1.2 7.2-5.1 7.2-9.4V6L12 3Z"/><path d="m8.8 12 2.2 2.2 4.2-4.4"/></symbol>
</svg>
