<?xml version="1.0" encoding="UTF-8" standalone="no"?>
<!DOCTYPE svg PUBLIC "-//W3C//DTD SVG 1.1//EN" "http://www.w3.org/Graphics/SVG/1.1/DTD/svg11.dtd">
<svg xmlns="http://www.w3.org/2000/svg" version="1.1" viewBox="0.00 0.00 800.00 800.00">
<g stroke-width="2.00" fill="none" stroke-linecap="butt">
<path stroke="#a1a1a1" vector-effect="non-scaling-stroke" d="
  M 453.28 173.21
  A 0.22 0.22 0.0 0 0 453.28 172.82
  Q 432.28 160.45 423.21 155.31
  Q 420.30 153.66 418.14 154.89
  Q 395.16 168.01 353.71 192.19
  Q 350.84 193.86 343.74 198.27
  Q 336.33 202.85 328.29 206.52
  A 1.13 1.13 0.0 0 0 327.63 207.55
  L 327.63 246.93
  A 0.91 0.90 13.3 0 0 328.14 247.74
  C 341.40 254.16 356.34 263.21 367.18 269.95
  C 370.97 272.31 374.44 273.11 377.99 271.00
  Q 408.58 252.81 442.64 233.43
  C 449.09 229.76 455.88 225.29 462.92 221.44
  Q 464.45 220.60 466.81 219.67
  A 1.57 1.55 41.7 0 1 467.77 219.62
  C 471.85 220.71 476.59 224.04 480.02 226.53
  A 0.62 0.62 0.0 0 1 480.05 227.52
  Q 478.23 229.00 476.32 230.08
  Q 443.28 248.74 428.57 257.34
  Q 414.46 265.59 405.54 270.54
  Q 397.78 274.85 391.67 278.68
  Q 388.77 280.50 388.16 281.09
  A 0.53 0.53 0.0 0 0 388.26 281.93
  L 418.46 299.37
  A 2.26 2.25 -35.6 0 0 420.04 299.63
  Q 422.94 299.06 424.90 297.91
  C 440.10 288.95 453.31 281.60 466.05 274.33
  Q 483.09 264.61 511.24 248.50
  A 2.43 2.42 75.8 0 0 512.45 246.45
  Q 512.91 223.16 512.81 210.30
  C 512.77 205.92 508.49 204.17 504.59 202.01
  Q 483.62 190.36 468.63 181.37
  A 2.25 2.23 45.3 0 0 466.37 181.35
  L 374.57 234.35
  A 2.10 2.10 0.0 0 1 372.73 234.47
  Q 366.79 232.00 361.09 227.87
  A 0.78 0.77 43.5 0 1 361.05 226.64
  Q 363.21 224.88 366.19 223.18
  C 375.38 217.94 384.38 212.32 392.91 207.62
  C 405.02 200.94 412.02 196.67 423.72 190.20
  Q 434.42 184.29 450.44 174.50
  C 451.32 173.96 452.34 173.73 453.28 173.21"
/>
<path stroke="#f6c08f" vector-effect="non-scaling-stroke" d="
  M 511.76 264.06
  Q 511.08 264.24 510.22 264.72
  Q 497.50 271.82 486.01 278.73
  Q 485.44 279.07 470.50 287.82
  Q 450.84 299.34 431.01 310.49
  Q 422.27 315.41 421.21 315.55
  A 7.01 5.91 -16.7 0 1 420.23 315.63
  C 418.05 315.69 413.62 312.78 411.29 311.46
  Q 398.46 304.22 354.62 278.72
  Q 332.00 265.57 328.26 263.62
  A 0.61 0.61 0.0 0 0 327.37 264.16
  L 327.37 299.72
  A 2.67 2.66 15.0 0 0 328.71 302.03
  L 419.27 354.32
  A 2.13 2.12 45.1 0 0 421.37 354.33
  C 449.19 338.68 481.19 320.62 511.10 302.25
  A 3.35 3.34 74.2 0 0 512.69 299.40
  L 512.69 264.78
  A 0.74 0.74 0.0 0 0 511.76 264.06"
/>
<path stroke="#a1a1a1" vector-effect="non-scaling-stroke" d="
  M 545.4502 416.3833
  A 47.15 46.15 -5.9 0 0 493.8061 375.3245
  A 47.15 46.15 -5.9 0 0 451.6498 426.0767
  A 47.15 46.15 -5.9 0 0 503.2939 467.1355
  A 47.15 46.15 -5.9 0 0 545.4502 416.3833"
/>
<path stroke="#a1a1a1" vector-effect="non-scaling-stroke" d="
  M 135.44 439.81
  L 125.82 451.46
  A 1.60 1.60 0.0 0 0 126.02 453.70
  Q 139.46 464.99 157.03 466.75
  C 178.60 468.92 199.00 457.11 193.97 432.51
  C 192.45 425.11 185.56 419.53 178.88 416.60
  Q 172.44 413.77 156.73 409.58
  C 153.87 408.82 150.71 407.49 149.08 405.20
  C 145.28 399.87 149.35 393.12 155.73 393.14
  C 161.79 393.16 165.17 392.81 169.83 394.93
  Q 176.70 398.06 180.85 400.75
  A 1.51 1.51 0.0 0 0 182.93 400.31
  L 191.26 387.73
  A 1.27 1.26 35.4 0 0 190.97 386.02
  Q 175.59 374.30 155.33 375.87
  C 142.15 376.89 131.85 383.58 128.86 397.18
  C 128.35 399.52 128.37 404.72 128.62 406.71
  C 130.24 419.80 140.38 425.19 151.90 428.03
  Q 157.41 429.39 159.13 430.12
  C 164.88 432.56 173.67 433.00 175.61 439.94
  C 176.69 443.78 172.26 448.18 168.82 448.88
  Q 166.72 449.32 157.15 449.18
  A 8.94 8.91 52.5 0 1 155.14 448.91
  Q 145.87 446.50 137.55 439.61
  A 1.50 1.49 39.5 0 0 135.44 439.81"
/>
<path stroke="#a1a1a1" vector-effect="non-scaling-stroke" d="
  M 226.70 438.73
  Q 227.91 438.69 242.69 438.76
  Q 248.34 438.79 252.03 437.72
  C 264.45 434.12 273.10 426.97 275.73 413.75
  Q 276.10 411.88 275.72 401.68
  A 5.83 5.80 -55.2 0 0 275.44 400.10
  C 272.43 391.08 268.75 384.72 260.01 380.53
  Q 252.17 376.77 241.72 376.59
  Q 225.90 376.33 206.45 376.52
  A 0.44 0.43 -0.7 0 0 206.02 376.95
  L 206.02 465.15
  A 0.75 0.75 0.0 0 0 206.77 465.90
  L 224.86 465.90
  A 0.74 0.74 0.0 0 0 225.60 465.16
  L 225.77 439.70
  A 0.98 0.97 89.1 0 1 226.70 438.73"
/>
<path stroke="#a1a1a1" vector-effect="non-scaling-stroke" d="
  M 315.54 376.45
  A 0.57 0.57 0.0 0 0 315.01 376.80
  L 277.59 465.12
  A 0.57 0.57 0.0 0 0 278.11 465.91
  L 296.60 465.91
  A 0.57 0.57 0.0 0 0 297.13 465.56
  L 305.30 446.26
  A 0.57 0.57 0.0 0 1 305.83 445.91
  L 342.08 445.91
  A 0.57 0.57 0.0 0 1 342.61 446.26
  L 350.77 465.58
  A 0.57 0.57 0.0 0 0 351.30 465.93
  L 370.24 465.93
  A 0.57 0.57 0.0 0 0 370.77 465.14
  L 333.44 376.80
  A 0.57 0.57 0.0 0 0 332.91 376.45
  L 315.54 376.45"
/>
<path stroke="#a1a1a1" vector-effect="non-scaling-stroke" d="
  M 418.86 465.92
  A 0.64 0.64 0.0 0 0 419.50 465.28
  L 419.50 395.29
  A 0.64 0.64 0.0 0 1 420.14 394.65
  L 444.90 394.65
  A 0.64 0.64 0.0 0 0 445.54 394.01
  L 445.54 377.06
  A 0.64 0.64 0.0 0 0 444.90 376.42
  L 373.43 376.42
  A 0.64 0.64 0.0 0 0 372.79 377.06
  L 372.79 393.99
  A 0.64 0.64 0.0 0 0 373.43 394.63
  L 399.43 394.63
  A 0.64 0.64 0.0 0 1 400.07 395.27
  L 400.07 465.28
  A 0.64 0.64 0.0 0 0 400.71 465.92
  L 418.86 465.92"
/>
<path stroke="#a1a1a1" vector-effect="non-scaling-stroke" d="
  M 557.68 465.28
  A 0.61 0.61 0.0 0 0 558.29 465.89
  L 620.51 465.89
  A 0.61 0.61 0.0 0 0 621.12 465.28
  L 621.12 448.29
  A 0.61 0.61 0.0 0 0 620.51 447.68
  L 577.78 447.68
  A 0.61 0.61 0.0 0 1 577.17 447.07
  L 577.17 377.05
  A 0.61 0.61 0.0 0 0 576.56 376.44
  L 558.29 376.44
  A 0.61 0.61 0.0 0 0 557.68 377.05
  L 557.68 465.28"
/>
<path stroke="#a1a1a1" vector-effect="non-scaling-stroke" d="
  M 623.03 465.86
  L 641.22 465.84
  A 1.49 1.49 0.0 0 0 642.60 464.92
  L 649.83 447.17
  A 2.15 2.15 0.0 0 1 651.81 445.84
  L 686.17 445.82
  A 2.16 2.16 0.0 0 1 688.17 447.15
  L 695.59 465.25
  A 0.90 0.89 78.7 0 0 696.42 465.80
  L 715.23 465.77
  A 0.59 0.58 78.2 0 0 715.76 464.95
  L 678.60 377.23
  A 1.24 1.23 78.4 0 0 677.46 376.47
  L 660.85 376.47
  A 1.08 1.07 -78.5 0 0 659.86 377.13
  L 622.63 465.27
  A 0.43 0.42 11.2 0 0 623.03 465.86"
/>
<path stroke="#a1a1a1" vector-effect="non-scaling-stroke" d="
  M 180.42 493.47
  Q 180.47 496.91 180.78 498.00
  C 181.93 502.07 186.07 505.40 190.29 506.21
  Q 196.18 507.36 202.25 503.53
  A 1.61 1.60 56.9 0 0 202.72 501.27
  Q 200.54 498.03 198.36 499.57
  C 196.26 501.05 192.50 501.33 190.88 500.91
  C 187.59 500.06 185.98 496.70 185.93 493.39
  C 185.88 490.08 187.38 486.67 190.65 485.72
  C 192.25 485.25 196.02 485.41 198.16 486.83
  Q 200.39 488.30 202.47 484.99
  A 1.61 1.60 -58.7 0 0 201.93 482.75
  Q 195.75 479.11 189.89 480.44
  C 185.70 481.38 181.67 484.83 180.64 488.94
  Q 180.36 490.04 180.42 493.47"
/>
<path stroke="#a1a1a1" vector-effect="non-scaling-stroke" d="
  M 241.71 493.30
  A 13.43 13.43 0.0 0 0 228.28 479.87
  A 13.43 13.43 0.0 0 0 214.85 493.30
  A 13.43 13.43 0.0 0 0 228.28 506.73
  A 13.43 13.43 0.0 0 0 241.71 493.30"
/>
<path stroke="#a1a1a1" vector-effect="non-scaling-stroke" d="
  M 466.5200 493.2937
  A 13.60 13.27 0.1 0 0 452.9432 480.0000
  A 13.60 13.27 0.1 0 0 439.3200 493.2463
  A 13.60 13.27 0.1 0 0 452.8968 506.5400
  A 13.60 13.27 0.1 0 0 466.5200 493.2937"
/>
<path stroke="#a1a1a1" vector-effect="non-scaling-stroke" d="
  M 552.62 485.60
  L 558.10 485.60
  A 1.26 1.23 -19.0 0 1 559.07 486.06
  Q 561.05 488.52 563.45 484.94
  C 564.45 483.45 563.68 482.80 562.71 481.92
  A 2.57 2.45 72.9 0 0 561.71 481.36
  C 557.99 480.27 550.66 479.32 547.82 482.78
  C 546.03 484.97 545.04 488.00 546.41 490.71
  Q 547.57 493.00 548.71 493.53
  Q 552.67 495.36 557.60 496.96
  A 2.50 2.27 18.3 0 1 559.27 499.91
  Q 558.97 500.82 557.54 501.09
  Q 553.31 501.89 549.54 499.20
  A 1.98 1.97 -57.2 0 0 546.69 499.82
  L 545.76 501.44
  A 1.81 1.80 -63.4 0 0 546.61 504.00
  C 551.82 506.24 557.10 507.91 562.22 504.51
  Q 566.44 501.71 565.45 496.81
  C 564.05 489.82 551.43 491.95 551.94 486.22
  A 0.69 0.68 -87.2 0 1 552.62 485.60"
/>
<path stroke="#a1a1a1" vector-effect="non-scaling-stroke" d="
  M 659.79 482.87
  Q 658.03 481.27 655.83 480.89
  C 648.87 479.65 640.33 480.41 642.22 490.21
  C 643.00 494.26 649.96 495.95 653.85 497.19
  A 1.74 1.74 0.0 0 1 654.64 499.97
  L 654.39 500.24
  A 4.21 4.20 33.3 0 1 649.71 501.20
  L 644.61 499.07
  A 1.86 1.85 -67.0 0 0 642.19 500.06
  L 641.57 501.53
  A 1.83 1.82 23.6 0 0 642.50 503.89
  C 647.41 506.16 652.11 507.69 657.14 505.08
  Q 660.68 503.24 661.04 498.85
  Q 661.49 493.48 655.36 491.45
  C 652.15 490.38 648.32 489.78 647.09 487.51
  A 1.19 1.19 0.0 0 1 647.95 485.77
  Q 651.32 485.28 654.03 485.84
  C 654.87 486.02 655.46 486.96 656.24 487.17
  A 1.12 1.12 0.0 0 0 657.20 486.95
  Q 659.17 485.34 659.97 483.92
  A 0.86 0.86 0.0 0 0 659.79 482.87"
/>
<path stroke="#a1a1a1" vector-effect="non-scaling-stroke" d="
  M 271.76 482.90
  Q 270.00 481.30 267.80 480.91
  C 260.84 479.65 252.30 480.39 254.16 490.19
  C 254.93 494.25 261.89 495.96 265.77 497.21
  A 1.74 1.74 0.0 0 1 266.56 499.99
  L 266.30 500.26
  A 4.21 4.20 33.5 0 1 261.62 501.21
  L 256.53 499.06
  A 1.86 1.85 -66.8 0 0 254.10 500.04
  L 253.48 501.51
  A 1.83 1.82 23.8 0 0 254.40 503.88
  C 259.31 506.16 264.00 507.70 269.04 505.11
  Q 272.59 503.28 272.96 498.89
  Q 273.42 493.52 267.30 491.47
  C 264.09 490.39 260.26 489.78 259.04 487.51
  A 1.19 1.19 0.0 0 1 259.91 485.77
  Q 263.28 485.29 265.99 485.86
  C 266.83 486.04 267.41 486.98 268.19 487.19
  A 1.12 1.12 0.0 0 0 269.15 486.98
  Q 271.13 485.37 271.93 483.96
  A 0.86 0.86 0.0 0 0 271.76 482.90"
/>
<path stroke="#a1a1a1" vector-effect="non-scaling-stroke" d="
  M 599.82 505.42
  L 594.73 498.59
  A 1.40 1.40 0.0 0 1 595.07 496.59
  C 598.82 494.06 598.95 492.17 598.80 487.48
  C 598.65 483.12 595.96 480.74 591.52 480.78
  Q 583.40 480.85 578.15 480.67
  A 0.59 0.59 0.0 0 0 577.54 481.26
  L 577.54 505.42
  A 0.87 0.87 0.0 0 0 578.41 506.29
  L 582.77 506.29
  A 0.86 0.86 0.0 0 0 583.63 505.43
  L 583.63 498.61
  A 1.15 1.14 84.9 0 1 584.57 497.48
  C 586.22 497.18 587.66 497.72 588.69 499.21
  Q 590.24 501.46 592.76 505.26
  A 2.26 2.25 73.2 0 0 594.64 506.27
  L 599.39 506.27
  A 0.53 0.53 0.0 0 0 599.82 505.42"
/>
<path stroke="#a1a1a1" vector-effect="non-scaling-stroke" d="
  M 294.33 506.18
  Q 295.90 506.18 296.55 506.03
  A 0.64 0.63 83.7 0 0 297.04 505.41
  L 297.04 486.22
  A 0.65 0.65 0.0 0 1 297.69 485.57
  L 304.08 485.57
  A 0.82 0.81 0.0 0 0 304.90 484.76
  L 304.90 481.68
  A 0.88 0.88 0.0 0 0 304.03 480.80
  Q 299.44 480.77 294.26 480.79
  Q 289.07 480.80 284.49 480.86
  A 0.88 0.88 0.0 0 0 283.62 481.74
  L 283.64 484.82
  A 0.82 0.81 -0.3 0 0 284.46 485.63
  L 290.85 485.59
  A 0.65 0.65 0.0 0 1 291.50 486.24
  L 291.62 505.43
  A 0.64 0.63 -84.0 0 0 292.11 506.04
  Q 292.76 506.19 294.33 506.18"
/>
<path stroke="#a1a1a1" vector-effect="non-scaling-stroke" d="
  M 338.94 505.32
  L 333.87 498.53
  A 1.39 1.39 0.0 0 1 334.21 496.54
  C 337.94 494.02 338.06 492.14 337.91 487.47
  C 337.76 483.13 335.08 480.77 330.66 480.81
  Q 322.58 480.89 317.36 480.71
  A 0.59 0.59 0.0 0 0 316.76 481.30
  L 316.78 505.34
  A 0.87 0.87 0.0 0 0 317.64 506.20
  L 321.98 506.20
  A 0.86 0.86 0.0 0 0 322.84 505.34
  L 322.83 498.56
  A 1.14 1.14 0.0 0 1 323.76 497.43
  C 325.40 497.13 326.84 497.67 327.86 499.15
  Q 329.41 501.38 331.92 505.16
  A 2.25 2.24 73.1 0 0 333.79 506.17
  L 338.51 506.16
  A 0.53 0.53 0.0 0 0 338.94 505.32"
/>
<path stroke="#a1a1a1" vector-effect="non-scaling-stroke" d="
  M 362.02 506.57
  Q 366.89 506.57 369.99 503.74
  C 373.01 500.98 372.65 497.39 372.70 493.46
  Q 372.81 485.60 372.75 481.60
  A 0.85 0.85 0.0 0 0 371.90 480.77
  L 368.71 480.77
  A 0.88 0.88 0.0 0 0 367.83 481.67
  Q 367.94 488.98 367.86 494.25
  C 367.80 498.22 366.36 501.01 362.02 501.01
  C 357.67 501.01 356.23 498.22 356.17 494.25
  Q 356.09 488.98 356.19 481.67
  A 0.88 0.88 0.0 0 0 355.31 480.77
  L 352.12 480.78
  A 0.85 0.85 0.0 0 0 351.27 481.61
  Q 351.22 485.61 351.33 493.47
  C 351.38 497.40 351.03 500.99 354.05 503.75
  Q 357.15 506.57 362.02 506.57"
/>
<path stroke="#a1a1a1" vector-effect="non-scaling-stroke" d="
  M 399.16 486.47
  Q 394.61 491.76 390.59 496.08
  C 388.08 498.77 385.77 501.87 386.22 505.60
  A 0.65 0.64 86.5 0 0 386.86 506.17
  L 406.62 506.17
  A 0.83 0.83 0.0 0 0 407.45 505.34
  L 407.45 501.54
  A 0.76 0.76 0.0 0 0 406.69 500.78
  L 394.90 500.78
  A 0.57 0.57 0.0 0 1 394.48 499.83
  Q 397.96 495.93 401.46 491.25
  C 403.81 488.11 408.14 486.02 407.47 481.37
  A 0.68 0.67 -3.9 0 0 406.80 480.79
  L 387.37 480.79
  A 0.83 0.83 0.0 0 0 386.54 481.62
  L 386.54 484.83
  A 0.82 0.82 0.0 0 0 387.36 485.65
  L 398.79 485.65
  A 0.50 0.49 -69.4 0 1 399.16 486.47"
/>
<path stroke="#a1a1a1" vector-effect="non-scaling-stroke" d="
  M 425.91 481.52
  A 0.73 0.73 0.0 0 0 425.18 480.79
  L 421.18 480.79
  A 0.73 0.73 0.0 0 0 420.45 481.52
  L 420.45 505.52
  A 0.73 0.73 0.0 0 0 421.18 506.25
  L 425.18 506.25
  A 0.73 0.73 0.0 0 0 425.91 505.52
  L 425.91 481.52"
/>
<path stroke="#a1a1a1" vector-effect="non-scaling-stroke" d="
  M 485.66 490.96
  L 496.25 505.17
  A 0.09 0.03 16.8 0 0 496.28 505.19
  Q 497.73 506.39 500.44 506.27
  A 1.11 1.11 0.0 0 0 501.50 505.16
  L 501.50 481.54
  A 0.77 0.77 0.0 0 0 500.73 480.77
  L 497.23 480.77
  A 0.83 0.82 -0.0 0 0 496.40 481.59
  L 496.40 495.31
  A 0.27 0.26 -76.1 0 1 496.01 495.55
  Q 495.62 495.35 495.43 495.08
  Q 490.91 488.87 486.88 483.63
  Q 485.35 481.63 484.37 481.07
  A 1.92 1.89 -29.0 0 0 483.39 480.80
  L 479.50 480.79
  A 0.60 0.60 0.0 0 0 478.90 481.39
  L 478.90 505.55
  A 0.65 0.64 -0.0 0 0 479.55 506.19
  L 484.31 506.19
  A 0.62 0.62 0.0 0 0 484.93 505.57
  L 484.93 491.20
  A 0.41 0.40 26.7 0 1 485.66 490.96"
/>
<path stroke="#a1a1a1" vector-effect="non-scaling-stroke" d="
  M 521.1490 481.4656
  A 0.70 0.70 0.0 0 0 520.4478 480.7668
  L 516.7478 480.7732
  A 0.70 0.70 0.0 0 0 516.0490 481.4745
  L 516.0910 505.5344
  A 0.70 0.70 0.0 0 0 516.7922 506.2332
  L 520.4922 506.2268
  A 0.70 0.70 0.0 0 0 521.1910 505.5255
  L 521.1490 481.4656"
/>
<path stroke="#a1a1a1" vector-effect="non-scaling-stroke" d="
  M 612.34 505.43
  A 0.75 0.75 0.0 0 0 613.09 506.18
  L 629.78 506.18
  A 0.75 0.75 0.0 0 0 630.53 505.43
  L 630.53 501.46
  A 0.75 0.75 0.0 0 0 629.78 500.71
  L 619.10 500.71
  A 0.75 0.75 0.0 0 1 618.35 499.96
  L 618.35 481.52
  A 0.75 0.75 0.0 0 0 617.60 480.77
  L 613.09 480.77
  A 0.75 0.75 0.0 0 0 612.34 481.52
  L 612.34 505.43"
/>
<path stroke="#a1a1a1" vector-effect="non-scaling-stroke" d="
  M 496.3332 393.1306
  A 28.14 26.75 -94.6 0 0 471.9262 423.3253
  A 28.14 26.75 -94.6 0 0 500.8468 449.2294
  A 28.14 26.75 -94.6 0 0 525.2538 419.0347
  A 28.14 26.75 -94.6 0 0 496.3332 393.1306"
/>
<path stroke="#a1a1a1" vector-effect="non-scaling-stroke" d="
  M 225.70 395.54
  L 225.78 420.76
  A 1.01 1.01 0.0 0 0 226.80 421.77
  L 242.38 421.72
  A 14.07 13.21 -0.2 0 0 256.40 408.46
  L 256.40 407.64
  A 14.07 13.21 -0.2 0 0 242.28 394.48
  L 226.70 394.53
  A 1.01 1.01 0.0 0 0 225.70 395.54"
/>
<path stroke="#a1a1a1" vector-effect="non-scaling-stroke" d="
  M 312.54 427.40
  A 0.53 0.53 0.0 0 0 313.03 428.14
  L 334.84 428.18
  A 0.53 0.53 0.0 0 0 335.33 427.44
  L 324.47 401.45
  A 0.53 0.53 0.0 0 0 323.49 401.45
  L 312.54 427.40"
/>
<path stroke="#a1a1a1" vector-effect="non-scaling-stroke" d="
  M 657.87 427.29
  A 0.69 0.69 0.0 0 0 658.51 428.24
  L 679.67 428.12
  A 0.69 0.69 0.0 0 0 680.30 427.17
  L 669.59 401.44
  A 0.69 0.69 0.0 0 0 668.31 401.45
  L 657.87 427.29"
/>
<path stroke="#a1a1a1" vector-effect="non-scaling-stroke" d="
  M 227.1012 485.4159
  A 7.91 7.63 -97.4 0 0 220.5535 494.2427
  A 7.91 7.63 -97.4 0 0 229.1388 501.1041
  A 7.91 7.63 -97.4 0 0 235.6865 492.2773
  A 7.91 7.63 -97.4 0 0 227.1012 485.4159"
/>
<path stroke="#a1a1a1" vector-effect="non-scaling-stroke" d="
  M 450.6473 485.6230
  A 7.99 7.82 -106.6 0 0 445.4359 495.5141
  A 7.99 7.82 -106.6 0 0 455.2127 500.9370
  A 7.99 7.82 -106.6 0 0 460.4241 491.0459
  A 7.99 7.82 -106.6 0 0 450.6473 485.6230"
/>
<path stroke="#a1a1a1" vector-effect="non-scaling-stroke" d="
  M 583.56 486.46
  L 583.56 492.24
  A 0.89 0.89 0.0 0 0 584.45 493.13
  L 589.54 493.13
  A 4.00 3.64 -0.0 0 0 593.54 489.49
  L 593.54 489.21
  A 4.00 3.64 0.0 0 0 589.54 485.57
  L 584.45 485.57
  A 0.89 0.89 0.0 0 0 583.56 486.46"
/>
<path stroke="#a1a1a1" vector-effect="non-scaling-stroke" d="
  M 322.78 486.10
  L 322.76 492.52
  A 0.61 0.61 0.0 0 0 323.37 493.14
  L 328.63 493.15
  A 3.91 3.67 0.2 0 0 332.55 489.50
  L 332.55 489.20
  A 3.91 3.67 0.2 0 0 328.65 485.51
  L 323.39 485.50
  A 0.61 0.61 0.0 0 0 322.78 486.10"
/>
</g>
<path fill="#ffffff" d="
  M 800.00 0.00
  L 800.00 800.00
  L 0.00 800.00
  L 0.00 0.00
  L 800.00 0.00
  Z
  M 453.28 173.21
  A 0.22 0.22 0.0 0 0 453.28 172.82
  Q 432.28 160.45 423.21 155.31
  Q 420.30 153.66 418.14 154.89
  Q 395.16 168.01 353.71 192.19
  Q 350.84 193.86 343.74 198.27
  Q 336.33 202.85 328.29 206.52
  A 1.13 1.13 0.0 0 0 327.63 207.55
  L 327.63 246.93
  A 0.91 0.90 13.3 0 0 328.14 247.74
  C 341.40 254.16 356.34 263.21 367.18 269.95
  C 370.97 272.31 374.44 273.11 377.99 271.00
  Q 408.58 252.81 442.64 233.43
  C 449.09 229.76 455.88 225.29 462.92 221.44
  Q 464.45 220.60 466.81 219.67
  A 1.57 1.55 41.7 0 1 467.77 219.62
  C 471.85 220.71 476.59 224.04 480.02 226.53
  A 0.62 0.62 0.0 0 1 480.05 227.52
  Q 478.23 229.00 476.32 230.08
  Q 443.28 248.74 428.57 257.34
  Q 414.46 265.59 405.54 270.54
  Q 397.78 274.85 391.67 278.68
  Q 388.77 280.50 388.16 281.09
  A 0.53 0.53 0.0 0 0 388.26 281.93
  L 418.46 299.37
  A 2.26 2.25 -35.6 0 0 420.04 299.63
  Q 422.94 299.06 424.90 297.91
  C 440.10 288.95 453.31 281.60 466.05 274.33
  Q 483.09 264.61 511.24 248.50
  A 2.43 2.42 75.8 0 0 512.45 246.45
  Q 512.91 223.16 512.81 210.30
  C 512.77 205.92 508.49 204.17 504.59 202.01
  Q 483.62 190.36 468.63 181.37
  A 2.25 2.23 45.3 0 0 466.37 181.35
  L 374.57 234.35
  A 2.10 2.10 0.0 0 1 372.73 234.47
  Q 366.79 232.00 361.09 227.87
  A 0.78 0.77 43.5 0 1 361.05 226.64
  Q 363.21 224.88 366.19 223.18
  C 375.38 217.94 384.38 212.32 392.91 207.62
  C 405.02 200.94 412.02 196.67 423.72 190.20
  Q 434.42 184.29 450.44 174.50
  C 451.32 173.96 452.34 173.73 453.28 173.21
  Z
  M 511.76 264.06
  Q 511.08 264.24 510.22 264.72
  Q 497.50 271.82 486.01 278.73
  Q 485.44 279.07 470.50 287.82
  Q 450.84 299.34 431.01 310.49
  Q 422.27 315.41 421.21 315.55
  A 7.01 5.91 -16.7 0 1 420.23 315.63
  C 418.05 315.69 413.62 312.78 411.29 311.46
  Q 398.46 304.22 354.62 278.72
  Q 332.00 265.57 328.26 263.62
  A 0.61 0.61 0.0 0 0 327.37 264.16
  L 327.37 299.72
  A 2.67 2.66 15.0 0 0 328.71 302.03
  L 419.27 354.32
  A 2.13 2.12 45.1 0 0 421.37 354.33
  C 449.19 338.68 481.19 320.62 511.10 302.25
  A 3.35 3.34 74.2 0 0 512.69 299.40
  L 512.69 264.78
  A 0.74 0.74 0.0 0 0 511.76 264.06
  Z
  M 545.4502 416.3833
  A 47.15 46.15 -5.9 0 0 493.8061 375.3245
  A 47.15 46.15 -5.9 0 0 451.6498 426.0767
  A 47.15 46.15 -5.9 0 0 503.2939 467.1355
  A 47.15 46.15 -5.9 0 0 545.4502 416.3833
  Z
  M 135.44 439.81
  L 125.82 451.46
  A 1.60 1.60 0.0 0 0 126.02 453.70
  Q 139.46 464.99 157.03 466.75
  C 178.60 468.92 199.00 457.11 193.97 432.51
  C 192.45 425.11 185.56 419.53 178.88 416.60
  Q 172.44 413.77 156.73 409.58
  C 153.87 408.82 150.71 407.49 149.08 405.20
  C 145.28 399.87 149.35 393.12 155.73 393.14
  C 161.79 393.16 165.17 392.81 169.83 394.93
  Q 176.70 398.06 180.85 400.75
  A 1.51 1.51 0.0 0 0 182.93 400.31
  L 191.26 387.73
  A 1.27 1.26 35.4 0 0 190.97 386.02
  Q 175.59 374.30 155.33 375.87
  C 142.15 376.89 131.85 383.58 128.86 397.18
  C 128.35 399.52 128.37 404.72 128.62 406.71
  C 130.24 419.80 140.38 425.19 151.90 428.03
  Q 157.41 429.39 159.13 430.12
  C 164.88 432.56 173.67 433.00 175.61 439.94
  C 176.69 443.78 172.26 448.18 168.82 448.88
  Q 166.72 449.32 157.15 449.18
  A 8.94 8.91 52.5 0 1 155.14 448.91
  Q 145.87 446.50 137.55 439.61
  A 1.50 1.49 39.5 0 0 135.44 439.81
  Z
  M 226.70 438.73
  Q 227.91 438.69 242.69 438.76
  Q 248.34 438.79 252.03 437.72
  C 264.45 434.12 273.10 426.97 275.73 413.75
  Q 276.10 411.88 275.72 401.68
  A 5.83 5.80 -55.2 0 0 275.44 400.10
  C 272.43 391.08 268.75 384.72 260.01 380.53
  Q 252.17 376.77 241.72 376.59
  Q 225.90 376.33 206.45 376.52
  A 0.44 0.43 -0.7 0 0 206.02 376.95
  L 206.02 465.15
  A 0.75 0.75 0.0 0 0 206.77 465.90
  L 224.86 465.90
  A 0.74 0.74 0.0 0 0 225.60 465.16
  L 225.77 439.70
  A 0.98 0.97 89.1 0 1 226.70 438.73
  Z
  M 315.54 376.45
  A 0.57 0.57 0.0 0 0 315.01 376.80
  L 277.59 465.12
  A 0.57 0.57 0.0 0 0 278.11 465.91
  L 296.60 465.91
  A 0.57 0.57 0.0 0 0 297.13 465.56
  L 305.30 446.26
  A 0.57 0.57 0.0 0 1 305.83 445.91
  L 342.08 445.91
  A 0.57 0.57 0.0 0 1 342.61 446.26
  L 350.77 465.58
  A 0.57 0.57 0.0 0 0 351.30 465.93
  L 370.24 465.93
  A 0.57 0.57 0.0 0 0 370.77 465.14
  L 333.44 376.80
  A 0.57 0.57 0.0 0 0 332.91 376.45
  L 315.54 376.45
  Z
  M 418.86 465.92
  A 0.64 0.64 0.0 0 0 419.50 465.28
  L 419.50 395.29
  A 0.64 0.64 0.0 0 1 420.14 394.65
  L 444.90 394.65
  A 0.64 0.64 0.0 0 0 445.54 394.01
  L 445.54 377.06
  A 0.64 0.64 0.0 0 0 444.90 376.42
  L 373.43 376.42
  A 0.64 0.64 0.0 0 0 372.79 377.06
  L 372.79 393.99
  A 0.64 0.64 0.0 0 0 373.43 394.63
  L 399.43 394.63
  A 0.64 0.64 0.0 0 1 400.07 395.27
  L 400.07 465.28
  A 0.64 0.64 0.0 0 0 400.71 465.92
  L 418.86 465.92
  Z
  M 557.68 465.28
  A 0.61 0.61 0.0 0 0 558.29 465.89
  L 620.51 465.89
  A 0.61 0.61 0.0 0 0 621.12 465.28
  L 621.12 448.29
  A 0.61 0.61 0.0 0 0 620.51 447.68
  L 577.78 447.68
  A 0.61 0.61 0.0 0 1 577.17 447.07
  L 577.17 377.05
  A 0.61 0.61 0.0 0 0 576.56 376.44
  L 558.29 376.44
  A 0.61 0.61 0.0 0 0 557.68 377.05
  L 557.68 465.28
  Z
  M 623.03 465.86
  L 641.22 465.84
  A 1.49 1.49 0.0 0 0 642.60 464.92
  L 649.83 447.17
  A 2.15 2.15 0.0 0 1 651.81 445.84
  L 686.17 445.82
  A 2.16 2.16 0.0 0 1 688.17 447.15
  L 695.59 465.25
  A 0.90 0.89 78.7 0 0 696.42 465.80
  L 715.23 465.77
  A 0.59 0.58 78.2 0 0 715.76 464.95
  L 678.60 377.23
  A 1.24 1.23 78.4 0 0 677.46 376.47
  L 660.85 376.47
  A 1.08 1.07 -78.5 0 0 659.86 377.13
  L 622.63 465.27
  A 0.43 0.42 11.2 0 0 623.03 465.86
  Z
  M 180.42 493.47
  Q 180.47 496.91 180.78 498.00
  C 181.93 502.07 186.07 505.40 190.29 506.21
  Q 196.18 507.36 202.25 503.53
  A 1.61 1.60 56.9 0 0 202.72 501.27
  Q 200.54 498.03 198.36 499.57
  C 196.26 501.05 192.50 501.33 190.88 500.91
  C 187.59 500.06 185.98 496.70 185.93 493.39
  C 185.88 490.08 187.38 486.67 190.65 485.72
  C 192.25 485.25 196.02 485.41 198.16 486.83
  Q 200.39 488.30 202.47 484.99
  A 1.61 1.60 -58.7 0 0 201.93 482.75
  Q 195.75 479.11 189.89 480.44
  C 185.70 481.38 181.67 484.83 180.64 488.94
  Q 180.36 490.04 180.42 493.47
  Z
  M 241.71 493.30
  A 13.43 13.43 0.0 0 0 228.28 479.87
  A 13.43 13.43 0.0 0 0 214.85 493.30
  A 13.43 13.43 0.0 0 0 228.28 506.73
  A 13.43 13.43 0.0 0 0 241.71 493.30
  Z
  M 466.5200 493.2937
  A 13.60 13.27 0.1 0 0 452.9432 480.0000
  A 13.60 13.27 0.1 0 0 439.3200 493.2463
  A 13.60 13.27 0.1 0 0 452.8968 506.5400
  A 13.60 13.27 0.1 0 0 466.5200 493.2937
  Z
  M 552.62 485.60
  L 558.10 485.60
  A 1.26 1.23 -19.0 0 1 559.07 486.06
  Q 561.05 488.52 563.45 484.94
  C 564.45 483.45 563.68 482.80 562.71 481.92
  A 2.57 2.45 72.9 0 0 561.71 481.36
  C 557.99 480.27 550.66 479.32 547.82 482.78
  C 546.03 484.97 545.04 488.00 546.41 490.71
  Q 547.57 493.00 548.71 493.53
  Q 552.67 495.36 557.60 496.96
  A 2.50 2.27 18.3 0 1 559.27 499.91
  Q 558.97 500.82 557.54 501.09
  Q 553.31 501.89 549.54 499.20
  A 1.98 1.97 -57.2 0 0 546.69 499.82
  L 545.76 501.44
  A 1.81 1.80 -63.4 0 0 546.61 504.00
  C 551.82 506.24 557.10 507.91 562.22 504.51
  Q 566.44 501.71 565.45 496.81
  C 564.05 489.82 551.43 491.95 551.94 486.22
  A 0.69 0.68 -87.2 0 1 552.62 485.60
  Z
  M 659.79 482.87
  Q 658.03 481.27 655.83 480.89
  C 648.87 479.65 640.33 480.41 642.22 490.21
  C 643.00 494.26 649.96 495.95 653.85 497.19
  A 1.74 1.74 0.0 0 1 654.64 499.97
  L 654.39 500.24
  A 4.21 4.20 33.3 0 1 649.71 501.20
  L 644.61 499.07
  A 1.86 1.85 -67.0 0 0 642.19 500.06
  L 641.57 501.53
  A 1.83 1.82 23.6 0 0 642.50 503.89
  C 647.41 506.16 652.11 507.69 657.14 505.08
  Q 660.68 503.24 661.04 498.85
  Q 661.49 493.48 655.36 491.45
  C 652.15 490.38 648.32 489.78 647.09 487.51
  A 1.19 1.19 0.0 0 1 647.95 485.77
  Q 651.32 485.28 654.03 485.84
  C 654.87 486.02 655.46 486.96 656.24 487.17
  A 1.12 1.12 0.0 0 0 657.20 486.95
  Q 659.17 485.34 659.97 483.92
  A 0.86 0.86 0.0 0 0 659.79 482.87
  Z
  M 271.76 482.90
  Q 270.00 481.30 267.80 480.91
  C 260.84 479.65 252.30 480.39 254.16 490.19
  C 254.93 494.25 261.89 495.96 265.77 497.21
  A 1.74 1.74 0.0 0 1 266.56 499.99
  L 266.30 500.26
  A 4.21 4.20 33.5 0 1 261.62 501.21
  L 256.53 499.06
  A 1.86 1.85 -66.8 0 0 254.10 500.04
  L 253.48 501.51
  A 1.83 1.82 23.8 0 0 254.40 503.88
  C 259.31 506.16 264.00 507.70 269.04 505.11
  Q 272.59 503.28 272.96 498.89
  Q 273.42 493.52 267.30 491.47
  C 264.09 490.39 260.26 489.78 259.04 487.51
  A 1.19 1.19 0.0 0 1 259.91 485.77
  Q 263.28 485.29 265.99 485.86
  C 266.83 486.04 267.41 486.98 268.19 487.19
  A 1.12 1.12 0.0 0 0 269.15 486.98
  Q 271.13 485.37 271.93 483.96
  A 0.86 0.86 0.0 0 0 271.76 482.90
  Z
  M 599.82 505.42
  L 594.73 498.59
  A 1.40 1.40 0.0 0 1 595.07 496.59
  C 598.82 494.06 598.95 492.17 598.80 487.48
  C 598.65 483.12 595.96 480.74 591.52 480.78
  Q 583.40 480.85 578.15 480.67
  A 0.59 0.59 0.0 0 0 577.54 481.26
  L 577.54 505.42
  A 0.87 0.87 0.0 0 0 578.41 506.29
  L 582.77 506.29
  A 0.86 0.86 0.0 0 0 583.63 505.43
  L 583.63 498.61
  A 1.15 1.14 84.9 0 1 584.57 497.48
  C 586.22 497.18 587.66 497.72 588.69 499.21
  Q 590.24 501.46 592.76 505.26
  A 2.26 2.25 73.2 0 0 594.64 506.27
  L 599.39 506.27
  A 0.53 0.53 0.0 0 0 599.82 505.42
  Z
  M 294.33 506.18
  Q 295.90 506.18 296.55 506.03
  A 0.64 0.63 83.7 0 0 297.04 505.41
  L 297.04 486.22
  A 0.65 0.65 0.0 0 1 297.69 485.57
  L 304.08 485.57
  A 0.82 0.81 0.0 0 0 304.90 484.76
  L 304.90 481.68
  A 0.88 0.88 0.0 0 0 304.03 480.80
  Q 299.44 480.77 294.26 480.79
  Q 289.07 480.80 284.49 480.86
  A 0.88 0.88 0.0 0 0 283.62 481.74
  L 283.64 484.82
  A 0.82 0.81 -0.3 0 0 284.46 485.63
  L 290.85 485.59
  A 0.65 0.65 0.0 0 1 291.50 486.24
  L 291.62 505.43
  A 0.64 0.63 -84.0 0 0 292.11 506.04
  Q 292.76 506.19 294.33 506.18
  Z
  M 338.94 505.32
  L 333.87 498.53
  A 1.39 1.39 0.0 0 1 334.21 496.54
  C 337.94 494.02 338.06 492.14 337.91 487.47
  C 337.76 483.13 335.08 480.77 330.66 480.81
  Q 322.58 480.89 317.36 480.71
  A 0.59 0.59 0.0 0 0 316.76 481.30
  L 316.78 505.34
  A 0.87 0.87 0.0 0 0 317.64 506.20
  L 321.98 506.20
  A 0.86 0.86 0.0 0 0 322.84 505.34
  L 322.83 498.56
  A 1.14 1.14 0.0 0 1 323.76 497.43
  C 325.40 497.13 326.84 497.67 327.86 499.15
  Q 329.41 501.38 331.92 505.16
  A 2.25 2.24 73.1 0 0 333.79 506.17
  L 338.51 506.16
  A 0.53 0.53 0.0 0 0 338.94 505.32
  Z
  M 362.02 506.57
  Q 366.89 506.57 369.99 503.74
  C 373.01 500.98 372.65 497.39 372.70 493.46
  Q 372.81 485.60 372.75 481.60
  A 0.85 0.85 0.0 0 0 371.90 480.77
  L 368.71 480.77
  A 0.88 0.88 0.0 0 0 367.83 481.67
  Q 367.94 488.98 367.86 494.25
  C 367.80 498.22 366.36 501.01 362.02 501.01
  C 357.67 501.01 356.23 498.22 356.17 494.25
  Q 356.09 488.98 356.19 481.67
  A 0.88 0.88 0.0 0 0 355.31 480.77
  L 352.12 480.78
  A 0.85 0.85 0.0 0 0 351.27 481.61
  Q 351.22 485.61 351.33 493.47
  C 351.38 497.40 351.03 500.99 354.05 503.75
  Q 357.15 506.57 362.02 506.57
  Z
  M 399.16 486.47
  Q 394.61 491.76 390.59 496.08
  C 388.08 498.77 385.77 501.87 386.22 505.60
  A 0.65 0.64 86.5 0 0 386.86 506.17
  L 406.62 506.17
  A 0.83 0.83 0.0 0 0 407.45 505.34
  L 407.45 501.54
  A 0.76 0.76 0.0 0 0 406.69 500.78
  L 394.90 500.78
  A 0.57 0.57 0.0 0 1 394.48 499.83
  Q 397.96 495.93 401.46 491.25
  C 403.81 488.11 408.14 486.02 407.47 481.37
  A 0.68 0.67 -3.9 0 0 406.80 480.79
  L 387.37 480.79
  A 0.83 0.83 0.0 0 0 386.54 481.62
  L 386.54 484.83
  A 0.82 0.82 0.0 0 0 387.36 485.65
  L 398.79 485.65
  A 0.50 0.49 -69.4 0 1 399.16 486.47
  Z
  M 425.91 481.52
  A 0.73 0.73 0.0 0 0 425.18 480.79
  L 421.18 480.79
  A 0.73 0.73 0.0 0 0 420.45 481.52
  L 420.45 505.52
  A 0.73 0.73 0.0 0 0 421.18 506.25
  L 425.18 506.25
  A 0.73 0.73 0.0 0 0 425.91 505.52
  L 425.91 481.52
  Z
  M 485.66 490.96
  L 496.25 505.17
  A 0.09 0.03 16.8 0 0 496.28 505.19
  Q 497.73 506.39 500.44 506.27
  A 1.11 1.11 0.0 0 0 501.50 505.16
  L 501.50 481.54
  A 0.77 0.77 0.0 0 0 500.73 480.77
  L 497.23 480.77
  A 0.83 0.82 -0.0 0 0 496.40 481.59
  L 496.40 495.31
  A 0.27 0.26 -76.1 0 1 496.01 495.55
  Q 495.62 495.35 495.43 495.08
  Q 490.91 488.87 486.88 483.63
  Q 485.35 481.63 484.37 481.07
  A 1.92 1.89 -29.0 0 0 483.39 480.80
  L 479.50 480.79
  A 0.60 0.60 0.0 0 0 478.90 481.39
  L 478.90 505.55
  A 0.65 0.64 -0.0 0 0 479.55 506.19
  L 484.31 506.19
  A 0.62 0.62 0.0 0 0 484.93 505.57
  L 484.93 491.20
  A 0.41 0.40 26.7 0 1 485.66 490.96
  Z
  M 521.1490 481.4656
  A 0.70 0.70 0.0 0 0 520.4478 480.7668
  L 516.7478 480.7732
  A 0.70 0.70 0.0 0 0 516.0490 481.4745
  L 516.0910 505.5344
  A 0.70 0.70 0.0 0 0 516.7922 506.2332
  L 520.4922 506.2268
  A 0.70 0.70 0.0 0 0 521.1910 505.5255
  L 521.1490 481.4656
  Z
  M 612.34 505.43
  A 0.75 0.75 0.0 0 0 613.09 506.18
  L 629.78 506.18
  A 0.75 0.75 0.0 0 0 630.53 505.43
  L 630.53 501.46
  A 0.75 0.75 0.0 0 0 629.78 500.71
  L 619.10 500.71
  A 0.75 0.75 0.0 0 1 618.35 499.96
  L 618.35 481.52
  A 0.75 0.75 0.0 0 0 617.60 480.77
  L 613.09 480.77
  A 0.75 0.75 0.0 0 0 612.34 481.52
  L 612.34 505.43
  Z"
/>
<path fill="#424242" d="
  M 453.28 173.21
  C 452.34 173.73 451.32 173.96 450.44 174.50
  Q 434.42 184.29 423.72 190.20
  C 412.02 196.67 405.02 200.94 392.91 207.62
  C 384.38 212.32 375.38 217.94 366.19 223.18
  Q 363.21 224.88 361.05 226.64
  A 0.78 0.77 43.5 0 0 361.09 227.87
  Q 366.79 232.00 372.73 234.47
  A 2.10 2.10 0.0 0 0 374.57 234.35
  L 466.37 181.35
  A 2.25 2.23 45.3 0 1 468.63 181.37
  Q 483.62 190.36 504.59 202.01
  C 508.49 204.17 512.77 205.92 512.81 210.30
  Q 512.91 223.16 512.45 246.45
  A 2.43 2.42 75.8 0 1 511.24 248.50
  Q 483.09 264.61 466.05 274.33
  C 453.31 281.60 440.10 288.95 424.90 297.91
  Q 422.94 299.06 420.04 299.63
  A 2.26 2.25 -35.6 0 1 418.46 299.37
  L 388.26 281.93
  A 0.53 0.53 0.0 0 1 388.16 281.09
  Q 388.77 280.50 391.67 278.68
  Q 397.78 274.85 405.54 270.54
  Q 414.46 265.59 428.57 257.34
  Q 443.28 248.74 476.32 230.08
  Q 478.23 229.00 480.05 227.52
  A 0.62 0.62 0.0 0 0 480.02 226.53
  C 476.59 224.04 471.85 220.71 467.77 219.62
  A 1.57 1.55 41.7 0 0 466.81 219.67
  Q 464.45 220.60 462.92 221.44
  C 455.88 225.29 449.09 229.76 442.64 233.43
  Q 408.58 252.81 377.99 271.00
  C 374.44 273.11 370.97 272.31 367.18 269.95
  C 356.34 263.21 341.40 254.16 328.14 247.74
  A 0.91 0.90 13.3 0 1 327.63 246.93
  L 327.63 207.55
  A 1.13 1.13 0.0 0 1 328.29 206.52
  Q 336.33 202.85 343.74 198.27
  Q 350.84 193.86 353.71 192.19
  Q 395.16 168.01 418.14 154.89
  Q 420.30 153.66 423.21 155.31
  Q 432.28 160.45 453.28 172.82
  A 0.22 0.22 0.0 0 1 453.28 173.21
  Z"
/>
<path fill="#ed801e" d="
  M 511.76 264.06
  A 0.74 0.74 0.0 0 1 512.69 264.78
  L 512.69 299.40
  A 3.35 3.34 74.2 0 1 511.10 302.25
  C 481.19 320.62 449.19 338.68 421.37 354.33
  A 2.13 2.12 45.1 0 1 419.27 354.32
  L 328.71 302.03
  A 2.67 2.66 15.0 0 1 327.37 299.72
  L 327.37 264.16
  A 0.61 0.61 0.0 0 1 328.26 263.62
  Q 332.00 265.57 354.62 278.72
  Q 398.46 304.22 411.29 311.46
  C 413.62 312.78 418.05 315.69 420.23 315.63
  A 7.01 5.91 -16.7 0 0 421.21 315.55
  Q 422.27 315.41 431.01 310.49
  Q 450.84 299.34 470.50 287.82
  Q 485.44 279.07 486.01 278.73
  Q 497.50 271.82 510.22 264.72
  Q 511.08 264.24 511.76 264.06
  Z"
/>
<path fill="#424242" d="
  M 545.4502 416.3833
  A 47.15 46.15 -5.9 0 1 503.2939 467.1355
  A 47.15 46.15 -5.9 0 1 451.6498 426.0767
  A 47.15 46.15 -5.9 0 1 493.8061 375.3245
  A 47.15 46.15 -5.9 0 1 545.4502 416.3833
  Z
  M 496.3332 393.1306
  A 28.14 26.75 -94.6 0 0 471.9262 423.3253
  A 28.14 26.75 -94.6 0 0 500.8468 449.2294
  A 28.14 26.75 -94.6 0 0 525.2538 419.0347
  A 28.14 26.75 -94.6 0 0 496.3332 393.1306
  Z"
/>
<path fill="#424242" d="
  M 135.44 439.81
  A 1.50 1.49 39.5 0 1 137.55 439.61
  Q 145.87 446.50 155.14 448.91
  A 8.94 8.91 52.5 0 0 157.15 449.18
  Q 166.72 449.32 168.82 448.88
  C 172.26 448.18 176.69 443.78 175.61 439.94
  C 173.67 433.00 164.88 432.56 159.13 430.12
  Q 157.41 429.39 151.90 428.03
  C 140.38 425.19 130.24 419.80 128.62 406.71
  C 128.37 404.72 128.35 399.52 128.86 397.18
  C 131.85 383.58 142.15 376.89 155.33 375.87
  Q 175.59 374.30 190.97 386.02
  A 1.27 1.26 35.4 0 1 191.26 387.73
  L 182.93 400.31
  A 1.51 1.51 0.0 0 1 180.85 400.75
  Q 176.70 398.06 169.83 394.93
  C 165.17 392.81 161.79 393.16 155.73 393.14
  C 149.35 393.12 145.28 399.87 149.08 405.20
  C 150.71 407.49 153.87 408.82 156.73 409.58
  Q 172.44 413.77 178.88 416.60
  C 185.56 419.53 192.45 425.11 193.97 432.51
  C 199.00 457.11 178.60 468.92 157.03 466.75
  Q 139.46 464.99 126.02 453.70
  A 1.60 1.60 0.0 0 1 125.82 451.46
  L 135.44 439.81
  Z"
/>
<path fill="#424242" d="
  M 225.77 439.70
  L 225.60 465.16
  A 0.74 0.74 0.0 0 1 224.86 465.90
  L 206.77 465.90
  A 0.75 0.75 0.0 0 1 206.02 465.15
  L 206.02 376.95
  A 0.44 0.43 -0.7 0 1 206.45 376.52
  Q 225.90 376.33 241.72 376.59
  Q 252.17 376.77 260.01 380.53
  C 268.75 384.72 272.43 391.08 275.44 400.10
  A 5.83 5.80 -55.2 0 1 275.72 401.68
  Q 276.10 411.88 275.73 413.75
  C 273.10 426.97 264.45 434.12 252.03 437.72
  Q 248.34 438.79 242.69 438.76
  Q 227.91 438.69 226.70 438.73
  A 0.98 0.97 89.1 0 0 225.77 439.70
  Z
  M 225.70 395.54
  L 225.78 420.76
  A 1.01 1.01 0.0 0 0 226.80 421.77
  L 242.38 421.72
  A 14.07 13.21 -0.2 0 0 256.40 408.46
  L 256.40 407.64
  A 14.07 13.21 -0.2 0 0 242.28 394.48
  L 226.70 394.53
  A 1.01 1.01 0.0 0 0 225.70 395.54
  Z"
/>
<path fill="#424242" d="
  M 315.54 376.45
  L 332.91 376.45
  A 0.57 0.57 0.0 0 1 333.44 376.80
  L 370.77 465.14
  A 0.57 0.57 0.0 0 1 370.24 465.93
  L 351.30 465.93
  A 0.57 0.57 0.0 0 1 350.77 465.58
  L 342.61 446.26
  A 0.57 0.57 0.0 0 0 342.08 445.91
  L 305.83 445.91
  A 0.57 0.57 0.0 0 0 305.30 446.26
  L 297.13 465.56
  A 0.57 0.57 0.0 0 1 296.60 465.91
  L 278.11 465.91
  A 0.57 0.57 0.0 0 1 277.59 465.12
  L 315.01 376.80
  A 0.57 0.57 0.0 0 1 315.54 376.45
  Z
  M 312.54 427.40
  A 0.53 0.53 0.0 0 0 313.03 428.14
  L 334.84 428.18
  A 0.53 0.53 0.0 0 0 335.33 427.44
  L 324.47 401.45
  A 0.53 0.53 0.0 0 0 323.49 401.45
  L 312.54 427.40
  Z"
/>
<path fill="#424242" d="
  M 418.86 465.92
  L 400.71 465.92
  A 0.64 0.64 0.0 0 1 400.07 465.28
  L 400.07 395.27
  A 0.64 0.64 0.0 0 0 399.43 394.63
  L 373.43 394.63
  A 0.64 0.64 0.0 0 1 372.79 393.99
  L 372.79 377.06
  A 0.64 0.64 0.0 0 1 373.43 376.42
  L 444.90 376.42
  A 0.64 0.64 0.0 0 1 445.54 377.06
  L 445.54 394.01
  A 0.64 0.64 0.0 0 1 444.90 394.65
  L 420.14 394.65
  A 0.64 0.64 0.0 0 0 419.50 395.29
  L 419.50 465.28
  A 0.64 0.64 0.0 0 1 418.86 465.92
  Z"
/>
<path fill="#424242" d="
  M 557.68 465.28
  L 557.68 377.05
  A 0.61 0.61 0.0 0 1 558.29 376.44
  L 576.56 376.44
  A 0.61 0.61 0.0 0 1 577.17 377.05
  L 577.17 447.07
  A 0.61 0.61 0.0 0 0 577.78 447.68
  L 620.51 447.68
  A 0.61 0.61 0.0 0 1 621.12 448.29
  L 621.12 465.28
  A 0.61 0.61 0.0 0 1 620.51 465.89
  L 558.29 465.89
  A 0.61 0.61 0.0 0 1 557.68 465.28
  Z"
/>
<path fill="#424242" d="
  M 623.03 465.86
  A 0.43 0.42 11.2 0 1 622.63 465.27
  L 659.86 377.13
  A 1.08 1.07 -78.5 0 1 660.85 376.47
  L 677.46 376.47
  A 1.24 1.23 78.4 0 1 678.60 377.23
  L 715.76 464.95
  A 0.59 0.58 78.2 0 1 715.23 465.77
  L 696.42 465.80
  A 0.90 0.89 78.7 0 1 695.59 465.25
  L 688.17 447.15
  A 2.16 2.16 0.0 0 0 686.17 445.82
  L 651.81 445.84
  A 2.15 2.15 0.0 0 0 649.83 447.17
  L 642.60 464.92
  A 1.49 1.49 0.0 0 1 641.22 465.84
  L 623.03 465.86
  Z
  M 657.87 427.29
  A 0.69 0.69 0.0 0 0 658.51 428.24
  L 679.67 428.12
  A 0.69 0.69 0.0 0 0 680.30 427.17
  L 669.59 401.44
  A 0.69 0.69 0.0 0 0 668.31 401.45
  L 657.87 427.29
  Z"
/>
<ellipse fill="#ffffff" cx="0.00" cy="0.00" transform="translate(498.59,421.18) rotate(-94.6)" rx="28.14" ry="26.75"/>
<path fill="#ffffff" d="
  M 225.70 395.54
  A 1.01 1.01 0.0 0 1 226.70 394.53
  L 242.28 394.48
  A 14.07 13.21 -0.2 0 1 256.40 407.64
  L 256.40 408.46
  A 14.07 13.21 -0.2 0 1 242.38 421.72
  L 226.80 421.77
  A 1.01 1.01 0.0 0 1 225.78 420.76
  L 225.70 395.54
  Z"
/>
<path fill="#ffffff" d="
  M 312.54 427.40
  L 323.49 401.45
  A 0.53 0.53 0.0 0 1 324.47 401.45
  L 335.33 427.44
  A 0.53 0.53 0.0 0 1 334.84 428.18
  L 313.03 428.14
  A 0.53 0.53 0.0 0 1 312.54 427.40
  Z"
/>
<path fill="#ffffff" d="
  M 657.87 427.29
  L 668.31 401.45
  A 0.69 0.69 0.0 0 1 669.59 401.44
  L 680.30 427.17
  A 0.69 0.69 0.0 0 1 679.67 428.12
  L 658.51 428.24
  A 0.69 0.69 0.0 0 1 657.87 427.29
  Z"
/>
<path fill="#424242" d="
  M 185.93 493.39
  C 185.98 496.70 187.59 500.06 190.88 500.91
  C 192.50 501.33 196.26 501.05 198.36 499.57
  Q 200.54 498.03 202.72 501.27
  A 1.61 1.60 56.9 0 1 202.25 503.53
  Q 196.18 507.36 190.29 506.21
  C 186.07 505.40 181.93 502.07 180.78 498.00
  Q 180.47 496.91 180.42 493.47
  Q 180.36 490.04 180.64 488.94
  C 181.67 484.83 185.70 481.38 189.89 480.44
  Q 195.75 479.11 201.93 482.75
  A 1.61 1.60 -58.7 0 1 202.47 484.99
  Q 200.39 488.30 198.16 486.83
  C 196.02 485.41 192.25 485.25 190.65 485.72
  C 187.38 486.67 185.88 490.08 185.93 493.39
  Z"
/>
<path fill="#424242" d="
  M 241.71 493.30
  A 13.43 13.43 0.0 0 1 228.28 506.73
  A 13.43 13.43 0.0 0 1 214.85 493.30
  A 13.43 13.43 0.0 0 1 228.28 479.87
  A 13.43 13.43 0.0 0 1 241.71 493.30
  Z
  M 227.1012 485.4159
  A 7.91 7.63 -97.4 0 0 220.5535 494.2427
  A 7.91 7.63 -97.4 0 0 229.1388 501.1041
  A 7.91 7.63 -97.4 0 0 235.6865 492.2773
  A 7.91 7.63 -97.4 0 0 227.1012 485.4159
  Z"
/>
<path fill="#424242" d="
  M 466.5200 493.2937
  A 13.60 13.27 0.1 0 1 452.8968 506.5400
  A 13.60 13.27 0.1 0 1 439.3200 493.2463
  A 13.60 13.27 0.1 0 1 452.9432 480.0000
  A 13.60 13.27 0.1 0 1 466.5200 493.2937
  Z
  M 450.6473 485.6230
  A 7.99 7.82 -106.6 0 0 445.4359 495.5141
  A 7.99 7.82 -106.6 0 0 455.2127 500.9370
  A 7.99 7.82 -106.6 0 0 460.4241 491.0459
  A 7.99 7.82 -106.6 0 0 450.6473 485.6230
  Z"
/>
<path fill="#424242" d="
  M 551.94 486.22
  C 551.43 491.95 564.05 489.82 565.45 496.81
  Q 566.44 501.71 562.22 504.51
  C 557.10 507.91 551.82 506.24 546.61 504.00
  A 1.81 1.80 -63.4 0 1 545.76 501.44
  L 546.69 499.82
  A 1.98 1.97 -57.2 0 1 549.54 499.20
  Q 553.31 501.89 557.54 501.09
  Q 558.97 500.82 559.27 499.91
  A 2.50 2.27 18.3 0 0 557.60 496.96
  Q 552.67 495.36 548.71 493.53
  Q 547.57 493.00 546.41 490.71
  C 545.04 488.00 546.03 484.97 547.82 482.78
  C 550.66 479.32 557.99 480.27 561.71 481.36
  A 2.57 2.45 72.9 0 1 562.71 481.92
  C 563.68 482.80 564.45 483.45 563.45 484.94
  Q 561.05 488.52 559.07 486.06
  A 1.26 1.23 -19.0 0 0 558.10 485.60
  L 552.62 485.60
  A 0.69 0.68 -87.2 0 0 551.94 486.22
  Z"
/>
<path fill="#424242" d="
  M 659.79 482.87
  A 0.86 0.86 0.0 0 1 659.97 483.92
  Q 659.17 485.34 657.20 486.95
  A 1.12 1.12 0.0 0 1 656.24 487.17
  C 655.46 486.96 654.87 486.02 654.03 485.84
  Q 651.32 485.28 647.95 485.77
  A 1.19 1.19 0.0 0 0 647.09 487.51
  C 648.32 489.78 652.15 490.38 655.36 491.45
  Q 661.49 493.48 661.04 498.85
  Q 660.68 503.24 657.14 505.08
  C 652.11 507.69 647.41 506.16 642.50 503.89
  A 1.83 1.82 23.6 0 1 641.57 501.53
  L 642.19 500.06
  A 1.86 1.85 -67.0 0 1 644.61 499.07
  L 649.71 501.20
  A 4.21 4.20 33.3 0 0 654.39 500.24
  L 654.64 499.97
  A 1.74 1.74 0.0 0 0 653.85 497.19
  C 649.96 495.95 643.00 494.26 642.22 490.21
  C 640.33 480.41 648.87 479.65 655.83 480.89
  Q 658.03 481.27 659.79 482.87
  Z"
/>
<path fill="#424242" d="
  M 271.76 482.90
  A 0.86 0.86 0.0 0 1 271.93 483.96
  Q 271.13 485.37 269.15 486.98
  A 1.12 1.12 0.0 0 1 268.19 487.19
  C 267.41 486.98 266.83 486.04 265.99 485.86
  Q 263.28 485.29 259.91 485.77
  A 1.19 1.19 0.0 0 0 259.04 487.51
  C 260.26 489.78 264.09 490.39 267.30 491.47
  Q 273.42 493.52 272.96 498.89
  Q 272.59 503.28 269.04 505.11
  C 264.00 507.70 259.31 506.16 254.40 503.88
  A 1.83 1.82 23.8 0 1 253.48 501.51
  L 254.10 500.04
  A 1.86 1.85 -66.8 0 1 256.53 499.06
  L 261.62 501.21
  A 4.21 4.20 33.5 0 0 266.30 500.26
  L 266.56 499.99
  A 1.74 1.74 0.0 0 0 265.77 497.21
  C 261.89 495.96 254.93 494.25 254.16 490.19
  C 252.30 480.39 260.84 479.65 267.80 480.91
  Q 270.00 481.30 271.76 482.90
  Z"
/>
<path fill="#424242" d="
  M 599.82 505.42
  A 0.53 0.53 0.0 0 1 599.39 506.27
  L 594.64 506.27
  A 2.26 2.25 73.2 0 1 592.76 505.26
  Q 590.24 501.46 588.69 499.21
  C 587.66 497.72 586.22 497.18 584.57 497.48
  A 1.15 1.14 84.9 0 0 583.63 498.61
  L 583.63 505.43
  A 0.86 0.86 0.0 0 1 582.77 506.29
  L 578.41 506.29
  A 0.87 0.87 0.0 0 1 577.54 505.42
  L 577.54 481.26
  A 0.59 0.59 0.0 0 1 578.15 480.67
  Q 583.40 480.85 591.52 480.78
  C 595.96 480.74 598.65 483.12 598.80 487.48
  C 598.95 492.17 598.82 494.06 595.07 496.59
  A 1.40 1.40 0.0 0 0 594.73 498.59
  L 599.82 505.42
  Z
  M 583.56 486.46
  L 583.56 492.24
  A 0.89 0.89 0.0 0 0 584.45 493.13
  L 589.54 493.13
  A 4.00 3.64 -0.0 0 0 593.54 489.49
  L 593.54 489.21
  A 4.00 3.64 0.0 0 0 589.54 485.57
  L 584.45 485.57
  A 0.89 0.89 0.0 0 0 583.56 486.46
  Z"
/>
<path fill="#424242" d="
  M 294.26 480.79
  Q 299.44 480.77 304.03 480.80
  A 0.88 0.88 0.0 0 1 304.90 481.68
  L 304.90 484.76
  A 0.82 0.81 -0.0 0 1 304.08 485.57
  L 297.69 485.57
  A 0.65 0.65 0.0 0 0 297.04 486.22
  L 297.04 505.41
  A 0.64 0.63 83.7 0 1 296.55 506.03
  Q 295.90 506.18 294.33 506.18
  Q 292.76 506.19 292.11 506.04
  A 0.64 0.63 -84.0 0 1 291.62 505.43
  L 291.50 486.24
  A 0.65 0.65 0.0 0 0 290.85 485.59
  L 284.46 485.63
  A 0.82 0.81 -0.3 0 1 283.64 484.82
  L 283.62 481.74
  A 0.88 0.88 0.0 0 1 284.49 480.86
  Q 289.07 480.80 294.26 480.79
  Z"
/>
<path fill="#424242" d="
  M 338.94 505.32
  A 0.53 0.53 0.0 0 1 338.51 506.16
  L 333.79 506.17
  A 2.25 2.24 73.1 0 1 331.92 505.16
  Q 329.41 501.38 327.86 499.15
  C 326.84 497.67 325.40 497.13 323.76 497.43
  A 1.14 1.14 0.0 0 0 322.83 498.56
  L 322.84 505.34
  A 0.86 0.86 0.0 0 1 321.98 506.20
  L 317.64 506.20
  A 0.87 0.87 0.0 0 1 316.78 505.34
  L 316.76 481.30
  A 0.59 0.59 0.0 0 1 317.36 480.71
  Q 322.58 480.89 330.66 480.81
  C 335.08 480.77 337.76 483.13 337.91 487.47
  C 338.06 492.14 337.94 494.02 334.21 496.54
  A 1.39 1.39 0.0 0 0 333.87 498.53
  L 338.94 505.32
  Z
  M 322.78 486.10
  L 322.76 492.52
  A 0.61 0.61 0.0 0 0 323.37 493.14
  L 328.63 493.15
  A 3.91 3.67 0.2 0 0 332.55 489.50
  L 332.55 489.20
  A 3.91 3.67 0.2 0 0 328.65 485.51
  L 323.39 485.50
  A 0.61 0.61 0.0 0 0 322.78 486.10
  Z"
/>
<path fill="#424242" d="
  M 362.02 501.01
  C 366.36 501.01 367.80 498.22 367.86 494.25
  Q 367.94 488.98 367.83 481.67
  A 0.88 0.88 0.0 0 1 368.71 480.77
  L 371.90 480.77
  A 0.85 0.85 0.0 0 1 372.75 481.60
  Q 372.81 485.60 372.70 493.46
  C 372.65 497.39 373.01 500.98 369.99 503.74
  Q 366.89 506.57 362.02 506.57
  Q 357.15 506.57 354.05 503.75
  C 351.03 500.99 351.38 497.40 351.33 493.47
  Q 351.22 485.61 351.27 481.61
  A 0.85 0.85 0.0 0 1 352.12 480.78
  L 355.31 480.77
  A 0.88 0.88 0.0 0 1 356.19 481.67
  Q 356.09 488.98 356.17 494.25
  C 356.23 498.22 357.67 501.01 362.02 501.01
  Z"
/>
<path fill="#424242" d="
  M 399.16 486.47
  A 0.50 0.49 -69.4 0 0 398.79 485.65
  L 387.36 485.65
  A 0.82 0.82 0.0 0 1 386.54 484.83
  L 386.54 481.62
  A 0.83 0.83 0.0 0 1 387.37 480.79
  L 406.80 480.79
  A 0.68 0.67 -3.9 0 1 407.47 481.37
  C 408.14 486.02 403.81 488.11 401.46 491.25
  Q 397.96 495.93 394.48 499.83
  A 0.57 0.57 0.0 0 0 394.90 500.78
  L 406.69 500.78
  A 0.76 0.76 0.0 0 1 407.45 501.54
  L 407.45 505.34
  A 0.83 0.83 0.0 0 1 406.62 506.17
  L 386.86 506.17
  A 0.65 0.64 86.5 0 1 386.22 505.60
  C 385.77 501.87 388.08 498.77 390.59 496.08
  Q 394.61 491.76 399.16 486.47
  Z"
/>
<rect fill="#424242" x="420.45" y="480.79" width="5.46" height="25.46" rx="0.73"/>
<path fill="#424242" d="
  M 485.66 490.96
  A 0.41 0.40 26.7 0 0 484.93 491.20
  L 484.93 505.57
  A 0.62 0.62 0.0 0 1 484.31 506.19
  L 479.55 506.19
  A 0.65 0.64 0.0 0 1 478.90 505.55
  L 478.90 481.39
  A 0.60 0.60 0.0 0 1 479.50 480.79
  L 483.39 480.80
  A 1.92 1.89 -29.0 0 1 484.37 481.07
  Q 485.35 481.63 486.88 483.63
  Q 490.91 488.87 495.43 495.08
  Q 495.62 495.35 496.01 495.55
  A 0.27 0.26 -76.1 0 0 496.40 495.31
  L 496.40 481.59
  A 0.83 0.82 0.0 0 1 497.23 480.77
  L 500.73 480.77
  A 0.77 0.77 0.0 0 1 501.50 481.54
  L 501.50 505.16
  A 1.11 1.11 0.0 0 1 500.44 506.27
  Q 497.73 506.39 496.28 505.19
  A 0.09 0.03 16.8 0 1 496.25 505.17
  L 485.66 490.96
  Z"
/>
<rect fill="#424242" x="-2.55" y="-12.73" transform="translate(518.62,493.50) rotate(-0.1)" width="5.10" height="25.46" rx="0.70"/>
<path fill="#424242" d="
  M 612.34 505.43
  L 612.34 481.52
  A 0.75 0.75 0.0 0 1 613.09 480.77
  L 617.60 480.77
  A 0.75 0.75 0.0 0 1 618.35 481.52
  L 618.35 499.96
  A 0.75 0.75 0.0 0 0 619.10 500.71
  L 629.78 500.71
  A 0.75 0.75 0.0 0 1 630.53 501.46
  L 630.53 505.43
  A 0.75 0.75 0.0 0 1 629.78 506.18
  L 613.09 506.18
  A 0.75 0.75 0.0 0 1 612.34 505.43
  Z"
/>
<ellipse fill="#ffffff" cx="0.00" cy="0.00" transform="translate(228.12,493.26) rotate(-97.4)" rx="7.91" ry="7.63"/>
<path fill="#ffffff" d="
  M 322.78 486.10
  A 0.61 0.61 0.0 0 1 323.39 485.50
  L 328.65 485.51
  A 3.91 3.67 0.2 0 1 332.55 489.20
  L 332.55 489.50
  A 3.91 3.67 0.2 0 1 328.63 493.15
  L 323.37 493.14
  A 0.61 0.61 0.0 0 1 322.76 492.52
  L 322.78 486.10
  Z"
/>
<ellipse fill="#ffffff" cx="0.00" cy="0.00" transform="translate(452.93,493.28) rotate(-106.6)" rx="7.99" ry="7.82"/>
<path fill="#ffffff" d="
  M 583.56 486.46
  A 0.89 0.89 0.0 0 1 584.45 485.57
  L 589.54 485.57
  A 4.00 3.64 -0.0 0 1 593.54 489.21
  L 593.54 489.49
  A 4.00 3.64 0.0 0 1 589.54 493.13
  L 584.45 493.13
  A 0.89 0.89 0.0 0 1 583.56 492.24
  L 583.56 486.46
  Z"
/>
</svg>
