<?xml version="1.0" encoding="UTF-8" standalone="no"?>
<!DOCTYPE svg PUBLIC "-//W3C//DTD SVG 1.1//EN" "http://www.w3.org/Graphics/SVG/1.1/DTD/svg11.dtd">
<svg xmlns="http://www.w3.org/2000/svg" version="1.1" viewBox="0.00 0.00 800.00 800.00">
<path fill="#424242" d="
  M 453.27 173.22
  Q 452.07 173.81 451.05 174.38
  Q 450.74 174.55 435.27 183.47
  Q 415.10 195.11 386.60 211.44
  Q 368.75 221.67 364.64 224.13
  Q 362.43 225.45 360.88 226.81
  A 0.59 0.59 0.0 0 0 360.92 227.73
  Q 366.82 232.04 372.70 234.46
  A 2.15 2.14 40.9 0 0 374.61 234.33
  L 466.28 181.41
  A 2.37 2.36 45.4 0 1 468.67 181.43
  Q 485.24 191.26 506.60 203.16
  C 510.62 205.40 512.89 206.58 512.87 211.50
  Q 512.78 229.21 512.47 246.38
  A 2.52 2.52 0.0 0 1 511.21 248.51
  Q 488.29 261.63 467.44 273.44
  Q 461.14 277.01 459.66 277.83
  Q 440.73 288.40 425.86 297.35
  Q 422.56 299.33 419.92 299.64
  A 2.43 2.42 -33.1 0 1 418.39 299.32
  L 388.24 281.92
  A 0.51 0.51 0.0 0 1 388.12 281.13
  Q 388.68 280.53 391.66 278.68
  Q 395.43 276.34 405.55 270.56
  C 428.92 257.21 453.60 242.80 475.55 230.55
  Q 477.49 229.47 480.04 227.52
  A 0.61 0.61 0.0 0 0 480.03 226.54
  C 476.63 224.06 471.92 220.76 467.77 219.61
  A 1.52 1.52 0.0 0 0 466.81 219.67
  C 458.39 223.18 450.43 228.99 442.75 233.37
  Q 406.15 254.22 378.15 270.91
  C 374.29 273.21 370.83 272.28 366.72 269.67
  Q 361.68 266.47 344.85 256.67
  Q 336.48 251.80 328.14 247.74
  A 0.91 0.90 13.3 0 1 327.63 246.93
  L 327.63 207.55
  A 1.13 1.13 0.0 0 1 328.29 206.52
  Q 336.37 202.84 343.84 198.21
  Q 350.91 193.82 353.93 192.07
  Q 402.98 163.48 418.14 154.90
  Q 420.32 153.67 423.21 155.31
  Q 430.72 159.55 453.28 172.82
  A 0.23 0.22 47.2 0 1 453.27 173.22
  Z"
/>
<path fill="#ed801e" d="
  M 511.78 264.05
  A 0.78 0.78 0.0 0 1 512.75 264.81
  L 512.64 299.92
  A 1.76 1.72 -30.4 0 1 512.40 300.80
  Q 511.81 301.85 509.81 303.07
  C 480.00 321.26 449.13 338.69 421.42 354.32
  A 2.21 2.19 45.3 0 1 419.24 354.30
  L 328.72 302.04
  A 2.70 2.70 0.0 0 1 327.37 299.70
  L 327.37 264.04
  A 0.48 0.48 0.0 0 1 328.07 263.62
  Q 334.52 266.96 338.35 269.21
  Q 388.09 298.37 416.62 314.43
  Q 417.71 315.05 419.89 315.60
  A 2.01 1.98 -48.4 0 0 421.09 315.52
  Q 425.36 313.86 426.62 313.12
  Q 439.84 305.42 450.83 299.17
  C 461.66 293.01 468.70 288.43 477.74 283.57
  Q 479.52 282.62 493.94 274.08
  Q 502.93 268.76 510.22 264.72
  Q 511.15 264.21 511.78 264.05
  Z"
/>
<path fill="#424242" d="
  M 545.4502 416.3833
  A 47.15 46.15 -5.9 0 1 503.2939 467.1355
  A 47.15 46.15 -5.9 0 1 451.6498 426.0767
  A 47.15 46.15 -5.9 0 1 493.8061 375.3245
  A 47.15 46.15 -5.9 0 1 545.4502 416.3833
  Z
  M 496.3332 393.1306
  A 28.14 26.75 -94.6 0 0 471.9262 423.3253
  A 28.14 26.75 -94.6 0 0 500.8468 449.2294
  A 28.14 26.75 -94.6 0 0 525.2538 419.0347
  A 28.14 26.75 -94.6 0 0 496.3332 393.1306
  Z"
/>
<path fill="#424242" d="
  M 135.44 439.81
  A 1.51 1.50 39.4 0 1 137.55 439.61
  Q 145.84 446.48 155.08 448.90
  A 8.79 8.65 52.1 0 0 157.19 449.18
  Q 166.49 449.31 168.67 448.91
  C 172.14 448.28 176.71 443.85 175.61 439.94
  C 174.53 436.08 170.74 433.63 166.55 432.48
  C 161.11 430.97 156.77 429.18 151.05 427.79
  C 142.26 425.66 132.70 420.96 129.82 411.84
  Q 127.64 404.94 128.96 397.05
  C 131.21 383.61 142.87 376.64 156.30 375.82
  Q 176.06 374.60 191.02 386.05
  A 1.22 1.21 -54.8 0 1 191.29 387.68
  L 182.95 400.29
  A 1.56 1.55 33.0 0 1 180.82 400.74
  Q 173.56 396.14 166.15 393.57
  Q 165.00 393.17 158.19 393.15
  C 154.88 393.14 152.27 393.03 149.88 395.50
  C 144.84 400.73 148.76 407.40 154.77 408.99
  Q 161.84 410.85 173.29 414.47
  C 180.07 416.61 185.89 419.79 190.36 425.08
  C 196.26 432.07 195.65 444.03 192.06 451.58
  C 186.04 464.24 170.03 468.11 156.77 466.73
  Q 139.40 464.91 126.03 453.72
  A 1.61 1.61 0.0 0 1 125.82 451.46
  L 135.44 439.81
  Z"
/>
<path fill="#424242" d="
  M 225.76 439.42
  L 225.76 465.16
  A 0.74 0.74 0.0 0 1 225.02 465.90
  L 206.76 465.90
  A 0.75 0.74 -90.0 0 1 206.02 465.15
  L 206.02 376.89
  A 0.37 0.36 -0.8 0 1 206.38 376.53
  Q 226.61 376.30 242.21 376.63
  Q 252.61 376.85 260.18 380.60
  C 268.90 384.92 272.66 391.38 275.45 400.30
  A 8.71 8.33 -55.3 0 1 275.83 402.69
  C 275.90 408.80 276.36 412.54 274.96 416.99
  C 270.88 430.03 261.42 435.40 248.81 438.53
  A 6.67 6.43 37.1 0 1 247.24 438.72
  L 226.46 438.72
  A 0.70 0.70 0.0 0 0 225.76 439.42
  Z
  M 225.70 395.54
  L 225.78 420.76
  A 1.01 1.01 0.0 0 0 226.80 421.77
  L 242.38 421.72
  A 14.07 13.21 -0.2 0 0 256.40 408.46
  L 256.40 407.64
  A 14.07 13.21 -0.2 0 0 242.28 394.48
  L 226.70 394.53
  A 1.01 1.01 0.0 0 0 225.70 395.54
  Z"
/>
<path fill="#424242" d="
  M 277.89 465.91
  A 0.42 0.42 0.0 0 1 277.50 465.33
  L 314.88 377.10
  A 1.08 1.06 -78.2 0 1 315.86 376.45
  L 332.85 376.45
  A 1.22 1.22 0.0 0 1 334.01 377.30
  Q 335.17 381.04 336.45 384.05
  Q 348.34 412.05 370.76 465.09
  A 0.60 0.60 0.0 0 1 370.21 465.93
  L 351.36 465.93
  A 1.01 1.00 79.4 0 1 350.42 465.28
  Q 347.11 456.46 343.31 447.74
  Q 342.52 445.93 340.51 445.92
  Q 323.47 445.82 306.85 445.94
  A 2.15 2.14 -78.7 0 0 304.89 447.25
  L 297.20 465.39
  A 0.85 0.84 -78.4 0 1 296.42 465.91
  L 277.89 465.91
  Z
  M 312.54 427.42
  A 0.52 0.52 0.0 0 0 313.02 428.14
  L 334.85 428.18
  A 0.52 0.52 0.0 0 0 335.33 427.46
  L 324.46 401.43
  A 0.52 0.52 0.0 0 0 323.50 401.43
  L 312.54 427.42
  Z"
/>
<path fill="#424242" d="
  M 418.86 465.92
  L 400.71 465.92
  A 0.64 0.64 0.0 0 1 400.07 465.28
  L 400.07 395.27
  A 0.64 0.64 0.0 0 0 399.43 394.63
  L 373.43 394.63
  A 0.64 0.64 0.0 0 1 372.79 393.99
  L 372.79 377.06
  A 0.64 0.64 0.0 0 1 373.43 376.42
  L 444.90 376.42
  A 0.64 0.64 0.0 0 1 445.54 377.06
  L 445.54 394.01
  A 0.64 0.64 0.0 0 1 444.90 394.65
  L 420.14 394.65
  A 0.64 0.64 0.0 0 0 419.50 395.29
  L 419.50 465.28
  A 0.64 0.64 0.0 0 1 418.86 465.92
  Z"
/>
<path fill="#424242" d="
  M 557.68 465.28
  L 557.68 377.05
  A 0.61 0.61 0.0 0 1 558.29 376.44
  L 576.56 376.44
  A 0.61 0.61 0.0 0 1 577.17 377.05
  L 577.17 447.07
  A 0.61 0.61 0.0 0 0 577.78 447.68
  L 620.51 447.68
  A 0.61 0.61 0.0 0 1 621.12 448.29
  L 621.12 465.28
  A 0.61 0.61 0.0 0 1 620.51 465.89
  L 558.29 465.89
  A 0.61 0.61 0.0 0 1 557.68 465.28
  Z"
/>
<path fill="#424242" d="
  M 623.02 465.86
  A 0.42 0.41 11.4 0 1 622.63 465.28
  L 659.85 377.14
  A 1.07 1.06 -78.3 0 1 660.83 376.49
  L 677.79 376.47
  A 1.22 1.21 81.1 0 1 678.95 377.32
  Q 680.11 381.05 681.39 384.05
  Q 693.30 412.00 715.75 464.93
  A 0.60 0.60 0.0 0 1 715.20 465.77
  L 696.38 465.79
  A 1.01 1.00 79.3 0 1 695.44 465.15
  Q 692.13 456.34 688.32 447.64
  Q 687.53 445.83 685.52 445.83
  Q 668.51 445.75 651.91 445.89
  A 2.14 2.14 0.0 0 0 649.96 447.20
  L 642.30 465.32
  A 0.85 0.84 -78.5 0 1 641.52 465.84
  L 623.02 465.86
  Z
  M 657.87 427.29
  A 0.69 0.69 0.0 0 0 658.51 428.24
  L 679.67 428.12
  A 0.69 0.69 0.0 0 0 680.30 427.17
  L 669.59 401.44
  A 0.69 0.69 0.0 0 0 668.31 401.45
  L 657.87 427.29
  Z"
/>
<path fill="#424242" d="
  M 185.93 493.39
  C 185.99 496.88 187.92 500.80 191.74 500.99
  Q 196.49 501.23 198.41 499.50
  A 1.88 1.87 -46.0 0 1 200.86 499.45
  L 202.49 500.79
  A 1.69 1.69 0.0 0 1 202.31 503.52
  Q 195.74 507.61 189.57 506.03
  C 185.63 505.03 181.84 501.84 180.78 498.00
  Q 180.47 496.90 180.42 493.47
  Q 180.36 490.05 180.64 488.94
  C 181.58 485.07 185.27 481.76 189.18 480.64
  Q 195.30 478.87 201.99 482.76
  A 1.69 1.69 0.0 0 1 202.25 485.48
  L 200.67 486.87
  A 1.88 1.87 44.2 0 1 198.22 486.90
  Q 196.24 485.23 191.50 485.61
  C 187.69 485.92 185.88 489.90 185.93 493.39
  Z"
/>
<path fill="#424242" d="
  M 241.71 493.30
  A 13.43 13.43 0.0 0 1 228.28 506.73
  A 13.43 13.43 0.0 0 1 214.85 493.30
  A 13.43 13.43 0.0 0 1 228.28 479.87
  A 13.43 13.43 0.0 0 1 241.71 493.30
  Z
  M 227.0875 485.4177
  A 7.91 7.63 -97.5 0 0 220.5553 494.2559
  A 7.91 7.63 -97.5 0 0 229.1525 501.1023
  A 7.91 7.63 -97.5 0 0 235.6847 492.2641
  A 7.91 7.63 -97.5 0 0 227.0875 485.4177
  Z"
/>
<path fill="#424242" d="
  M 466.5200 493.2937
  A 13.60 13.27 0.1 0 1 452.8968 506.5400
  A 13.60 13.27 0.1 0 1 439.3200 493.2463
  A 13.60 13.27 0.1 0 1 452.9432 480.0000
  A 13.60 13.27 0.1 0 1 466.5200 493.2937
  Z
  M 450.6340 485.6270
  A 7.99 7.82 -106.7 0 0 445.4398 495.5272
  A 7.99 7.82 -106.7 0 0 455.2260 500.9330
  A 7.99 7.82 -106.7 0 0 460.4202 491.0328
  A 7.99 7.82 -106.7 0 0 450.6340 485.6270
  Z"
/>
<path fill="#424242" d="
  M 551.94 486.22
  Q 552.01 489.16 554.50 489.85
  C 559.72 491.30 566.16 492.80 565.61 499.34
  C 565.18 504.48 558.55 506.97 554.53 506.41
  Q 551.65 506.01 546.69 504.01
  A 1.85 1.85 0.0 0 1 545.78 501.37
  L 546.64 499.88
  A 2.06 2.06 0.0 0 1 549.65 499.26
  Q 553.04 501.76 557.34 501.13
  Q 558.88 500.91 559.24 499.97
  A 2.32 2.22 19.6 0 0 557.77 497.04
  C 555.23 496.19 548.70 494.39 547.15 492.05
  Q 545.68 489.84 545.81 487.99
  C 546.46 479.21 555.23 479.58 561.51 481.29
  C 563.04 481.71 564.81 483.51 563.36 485.14
  C 562.06 486.61 560.91 488.09 559.02 486.03
  A 1.31 1.31 0.0 0 0 558.05 485.60
  L 552.55 485.60
  A 0.61 0.61 0.0 0 0 551.94 486.22
  Z"
/>
<path fill="#424242" d="
  M 659.57 482.62
  A 1.17 1.16 39.4 0 1 659.73 484.25
  L 657.69 486.73
  A 1.36 1.36 0.0 0 1 655.79 486.93
  Q 653.03 484.70 647.69 485.88
  A 1.03 1.03 0.0 0 0 646.97 487.31
  C 648.08 489.75 652.29 490.42 655.39 491.47
  Q 661.69 493.59 660.99 499.32
  Q 660.52 503.21 657.48 504.88
  C 652.31 507.73 647.78 506.30 642.44 503.87
  A 1.71 1.71 0.0 0 1 641.57 501.65
  L 642.29 499.94
  A 1.75 1.74 -64.8 0 1 644.71 499.06
  C 646.98 500.25 654.05 503.59 654.98 499.22
  A 1.86 1.80 14.4 0 0 653.67 497.09
  Q 648.29 495.54 644.32 493.40
  A 2.72 2.65 -5.0 0 1 643.53 492.75
  Q 641.59 490.36 641.96 487.05
  C 642.66 480.71 648.28 480.03 653.50 480.53
  Q 657.43 480.90 659.57 482.62
  Z"
/>
<path fill="#424242" d="
  M 271.53 482.65
  A 1.17 1.16 39.6 0 1 271.69 484.28
  L 269.64 486.76
  A 1.36 1.36 0.0 0 1 267.74 486.95
  Q 264.99 484.71 259.64 485.88
  A 1.03 1.03 0.0 0 0 258.92 487.31
  C 260.02 489.75 264.23 490.43 267.33 491.49
  Q 273.62 493.63 272.91 499.35
  Q 272.43 503.24 269.38 504.90
  C 264.20 507.74 259.68 506.30 254.34 503.85
  A 1.71 1.71 0.0 0 1 253.48 501.63
  L 254.21 499.92
  A 1.75 1.74 -64.7 0 1 256.63 499.05
  C 258.89 500.25 265.95 503.60 266.90 499.24
  A 1.86 1.80 14.5 0 0 265.59 497.10
  Q 260.22 495.54 256.25 493.39
  A 2.72 2.65 -4.8 0 1 255.46 492.74
  Q 253.53 490.34 253.91 487.03
  C 254.63 480.69 260.25 480.03 265.47 480.54
  Q 269.40 480.92 271.53 482.65
  Z"
/>
<path fill="#424242" d="
  M 599.84 505.39
  A 0.55 0.55 0.0 0 1 599.40 506.27
  L 594.59 506.27
  A 2.22 2.22 0.0 0 1 592.74 505.28
  Q 589.74 500.80 588.97 499.52
  Q 587.49 497.10 584.54 497.49
  A 1.05 1.03 86.6 0 0 583.63 498.53
  L 583.63 505.44
  A 0.85 0.85 0.0 0 1 582.78 506.29
  L 578.41 506.29
  A 0.87 0.87 0.0 0 1 577.54 505.42
  L 577.54 481.26
  A 0.57 0.57 0.0 0 1 578.13 480.69
  Q 580.65 480.77 592.94 480.84
  C 596.25 480.86 598.68 483.94 598.79 487.24
  C 598.94 492.03 598.93 494.03 595.00 496.64
  A 1.34 1.34 0.0 0 0 594.67 498.57
  L 599.84 505.39
  Z
  M 583.56 486.46
  L 583.56 492.24
  A 0.89 0.89 0.0 0 0 584.45 493.13
  L 589.54 493.13
  A 4.00 3.64 -0.0 0 0 593.54 489.49
  L 593.54 489.21
  A 4.00 3.64 0.0 0 0 589.54 485.57
  L 584.45 485.57
  A 0.89 0.89 0.0 0 0 583.56 486.46
  Z"
/>
<path fill="#424242" d="
  M 294.26 480.79
  Q 299.44 480.77 304.03 480.80
  A 0.88 0.88 0.0 0 1 304.90 481.68
  L 304.90 484.75
  A 0.82 0.82 0.0 0 1 304.08 485.57
  L 297.76 485.57
  A 0.72 0.71 -0.0 0 0 297.04 486.28
  L 297.04 505.46
  A 0.56 0.56 0.0 0 1 296.66 505.99
  Q 296.11 506.18 294.33 506.18
  Q 292.55 506.19 292.00 506.00
  A 0.56 0.56 0.0 0 1 291.62 505.48
  L 291.50 486.30
  A 0.72 0.71 -0.3 0 0 290.78 485.59
  L 284.46 485.63
  A 0.82 0.82 0.0 0 1 283.64 484.81
  L 283.62 481.74
  A 0.88 0.88 0.0 0 1 284.49 480.86
  Q 289.07 480.80 294.26 480.79
  Z"
/>
<path fill="#424242" d="
  M 338.96 505.29
  A 0.55 0.54 -18.6 0 1 338.52 506.16
  L 333.74 506.17
  A 2.21 2.21 0.0 0 1 331.90 505.18
  Q 328.91 500.73 328.14 499.46
  Q 326.67 497.05 323.73 497.44
  A 1.04 1.03 86.6 0 0 322.83 498.48
  L 322.84 505.35
  A 0.85 0.85 0.0 0 1 321.99 506.20
  L 317.64 506.20
  A 0.87 0.87 0.0 0 1 316.78 505.34
  L 316.76 481.30
  A 0.57 0.57 0.0 0 1 317.34 480.73
  Q 319.85 480.81 332.07 480.87
  C 335.37 480.89 337.79 483.95 337.90 487.23
  C 338.05 492.00 338.04 493.99 334.14 496.59
  A 1.34 1.34 0.0 0 0 333.81 498.51
  L 338.96 505.29
  Z
  M 322.78 486.10
  L 322.76 492.52
  A 0.61 0.61 0.0 0 0 323.37 493.14
  L 328.64 493.15
  A 3.90 3.67 0.2 0 0 332.55 489.50
  L 332.55 489.20
  A 3.90 3.67 0.2 0 0 328.66 485.51
  L 323.39 485.50
  A 0.61 0.61 0.0 0 0 322.78 486.10
  Z"
/>
<path fill="#424242" d="
  M 362.02 501.01
  C 367.02 501.01 368.02 497.20 367.93 493.00
  Q 367.90 491.69 367.83 481.69
  A 0.92 0.92 0.0 0 1 368.75 480.76
  L 371.82 480.76
  A 0.93 0.93 0.0 0 1 372.75 481.69
  Q 372.76 483.23 372.72 496.50
  C 372.71 503.05 368.31 506.57 362.02 506.57
  C 355.73 506.57 351.33 503.06 351.31 496.51
  Q 351.26 483.24 351.27 481.70
  A 0.93 0.93 0.0 0 1 352.20 480.77
  L 355.27 480.76
  A 0.92 0.92 0.0 0 1 356.19 481.69
  Q 356.13 491.69 356.11 493.01
  C 356.02 497.21 357.02 501.01 362.02 501.01
  Z"
/>
<path fill="#424242" d="
  M 399.16 486.54
  A 0.54 0.53 -69.3 0 0 398.76 485.65
  L 387.36 485.65
  A 0.82 0.82 0.0 0 1 386.54 484.83
  L 386.54 481.62
  A 0.84 0.83 90.0 0 1 387.37 480.78
  L 406.79 480.78
  A 0.66 0.65 84.7 0 1 407.43 481.32
  Q 407.97 484.15 406.24 486.01
  Q 400.61 492.07 394.50 499.98
  A 0.50 0.50 0.0 0 0 394.90 500.78
  L 406.68 500.78
  A 0.77 0.77 0.0 0 1 407.45 501.55
  L 407.45 505.34
  A 0.83 0.83 0.0 0 1 406.62 506.17
  L 386.98 506.17
  A 0.80 0.80 0.0 0 1 386.19 505.51
  C 385.59 502.09 388.10 498.84 390.72 495.96
  Q 395.07 491.17 399.16 486.54
  Z"
/>
<rect fill="#424242" x="420.45" y="480.79" width="5.46" height="25.46" rx="0.73"/>
<path fill="#424242" d="
  M 485.56 490.92
  A 0.36 0.35 26.6 0 0 484.92 491.13
  L 484.92 505.55
  A 0.65 0.64 -0.0 0 1 484.27 506.19
  L 479.54 506.19
  A 0.64 0.64 0.0 0 1 478.90 505.55
  L 478.90 481.39
  A 0.60 0.59 -89.5 0 1 479.50 480.79
  L 483.39 480.80
  A 1.92 1.89 -29.0 0 1 484.37 481.07
  Q 485.35 481.63 486.88 483.63
  Q 490.92 488.88 495.43 495.08
  Q 495.62 495.35 496.01 495.55
  A 0.27 0.26 -76.1 0 0 496.40 495.31
  L 496.40 481.59
  A 0.83 0.82 0.0 0 1 497.23 480.77
  L 500.72 480.77
  A 0.78 0.77 0.0 0 1 501.50 481.54
  L 501.50 505.23
  A 1.04 1.04 0.0 0 1 500.49 506.27
  Q 498.20 506.33 496.82 505.60
  A 1.09 1.08 -3.7 0 1 496.44 505.27
  L 485.56 490.92
  Z"
/>
<rect fill="#424242" x="-2.55" y="-12.73" transform="translate(518.62,493.50) rotate(-0.1)" width="5.10" height="25.46" rx="0.70"/>
<path fill="#424242" d="
  M 612.34 505.43
  L 612.34 481.52
  A 0.75 0.75 0.0 0 1 613.09 480.77
  L 617.60 480.77
  A 0.75 0.75 0.0 0 1 618.35 481.52
  L 618.35 499.96
  A 0.75 0.75 0.0 0 0 619.10 500.71
  L 629.78 500.71
  A 0.75 0.75 0.0 0 1 630.53 501.46
  L 630.53 505.43
  A 0.75 0.75 0.0 0 1 629.78 506.18
  L 613.09 506.18
  A 0.75 0.75 0.0 0 1 612.34 505.43
  Z"
/>
</svg>
