<?xml version="1.0" encoding="UTF-8" standalone="no"?>
<svg xmlns="http://www.w3.org/2000/svg" version="1.2" baseProfile="tiny" viewBox="0.00 0.00 610.00 424.00">
<g stroke-width="2.00" fill="none" stroke-linecap="butt">
<path stroke="#a4a5a5" vector-effect="non-scaling-stroke" d="
  M 0.31 0.00
  L 0.30 421.35
  A 0.11 0.10 -14.9 0 1 0.24 421.44
  Q 0.12 421.49 0.00 421.54"
/>
<path stroke="#a4a5a5" vector-effect="non-scaling-stroke" d="
  M 1.13 0.00
  L 1.93 0.37
  A 0.45 0.43 -79.3 0 1 2.20 0.78
  L 2.10 421.49
  A 0.19 0.15 38.0 0 0 2.12 421.57
  L 2.50 422.70
  A 0.74 0.73 70.5 0 1 2.07 423.61
  Q 1.66 423.77 1.50 424.00"
/>
<path stroke="#a4a5a5" vector-effect="non-scaling-stroke" d="
  M 369.01 216.81
  Q 368.49 215.30 367.62 213.38
  Q 361.14 199.24 327.84 125.46
  C 321.11 110.55 317.00 90.37 296.25 89.85
  Q 291.28 89.72 288.48 89.80
  A 1.00 1.00 0.0 0 0 287.63 91.27
  Q 288.56 92.99 289.52 95.22
  C 303.45 127.29 312.94 150.00 325.26 176.78
  Q 326.90 180.35 336.84 203.41
  C 342.47 216.47 355.69 218.13 368.48 217.59
  A 0.59 0.59 0.0 0 0 369.01 216.81"
/>
<path stroke="#7bb4cc" vector-effect="non-scaling-stroke" d="
  M 375.50 197.85
  Q 379.60 207.54 382.85 213.64
  Q 383.62 215.09 383.83 216.77
  A 0.73 0.72 -4.0 0 0 384.56 217.40
  Q 398.07 217.17 410.17 211.67
  C 428.08 203.54 435.68 184.54 429.12 166.07
  C 421.55 144.73 397.28 143.01 378.52 140.45
  C 373.07 139.70 367.55 138.09 362.94 135.91
  Q 357.13 133.15 356.08 128.27
  C 354.04 118.74 362.56 112.48 371.30 110.69
  Q 393.54 106.15 408.87 121.93
  A 1.24 1.24 0.0 0 0 410.84 121.69
  L 420.52 104.92
  A 1.29 1.29 0.0 0 0 420.29 103.34
  Q 412.46 96.08 402.78 93.05
  C 381.94 86.53 350.47 88.65 337.44 109.19
  Q 336.20 111.15 336.95 112.57
  Q 338.90 116.26 340.30 119.45
  Q 352.80 147.86 355.85 154.43
  C 357.47 157.94 362.16 158.41 366.82 159.40
  Q 370.50 160.18 386.29 162.43
  C 393.84 163.50 403.50 166.39 407.18 173.04
  C 410.19 178.50 408.44 186.46 403.95 190.24
  C 396.27 196.70 386.37 197.09 376.07 197.00
  A 0.61 0.61 0.0 0 0 375.50 197.85"
/>
<path stroke="#7cacc4" vector-effect="non-scaling-stroke" d="
  M 279.56 104.02
  L 228.99 216.29
  A 0.76 0.75 -77.5 0 0 229.66 217.35
  Q 249.85 217.72 252.02 217.56
  Q 254.53 217.38 255.26 216.23
  C 257.70 212.38 259.12 209.81 261.53 207.11
  Q 270.53 197.03 284.16 194.20
  C 290.26 192.94 298.86 193.64 304.69 193.15
  Q 311.62 192.55 313.82 186.14
  Q 315.88 180.14 312.07 175.50
  C 308.65 171.33 304.37 170.90 299.75 171.01
  Q 289.71 171.24 279.25 171.19
  Q 276.72 171.17 275.95 170.59
  A 0.66 0.65 -57.8 0 1 275.77 169.77
  Q 276.39 168.53 280.29 159.34
  Q 291.90 131.95 281.28 104.07
  A 0.93 0.93 0.0 0 0 279.56 104.02"
/>
<path stroke="#7cacc4" vector-effect="non-scaling-stroke" d="
  M 488.89 265.76
  L 479.31 265.76
  A 1.22 1.21 -84.2 0 0 478.12 266.73
  L 476.20 275.99
  A 1.65 1.64 89.5 0 1 474.98 277.24
  C 463.58 279.96 458.85 269.57 462.34 260.33
  Q 464.86 253.67 471.10 251.35
  C 476.50 249.35 479.66 251.10 484.13 253.96
  A 1.85 1.84 38.5 0 0 486.45 253.70
  C 488.66 251.46 491.97 248.93 493.04 246.40
  A 1.99 1.99 0.0 0 0 492.54 244.15
  C 484.38 236.76 472.50 237.05 463.28 242.20
  Q 456.65 245.91 452.37 253.42
  Q 445.64 265.25 449.85 277.13
  C 453.08 286.25 462.10 289.78 471.26 289.02
  Q 474.81 288.73 480.72 286.73
  C 483.93 285.65 486.36 284.95 487.01 281.52
  Q 488.26 274.88 489.94 267.05
  A 1.07 1.07 0.0 0 0 488.89 265.76"
/>
<path stroke="#7cacc4" vector-effect="non-scaling-stroke" d="
  M 96.32 274.81
  A 0.61 0.61 0.0 0 1 97.47 274.96
  L 99.55 287.02
  A 1.43 1.43 0.0 0 0 100.96 288.21
  L 108.95 288.21
  A 0.76 0.75 34.1 0 0 109.22 288.16
  Q 111.08 287.47 112.22 285.46
  Q 131.70 251.11 136.74 242.95
  Q 137.48 241.75 137.82 241.21
  A 1.14 1.14 0.0 0 0 136.88 239.47
  Q 129.85 239.32 127.42 239.37
  C 125.50 239.41 124.50 239.84 123.60 241.58
  Q 114.29 259.41 109.34 269.42
  A 0.39 0.39 0.0 0 1 108.60 269.31
  C 107.76 264.13 106.17 258.91 108.03 255.28
  Q 110.77 249.90 115.53 240.86
  A 1.03 1.02 13.8 0 0 114.62 239.36
  L 104.37 239.36
  A 2.93 2.93 0.0 0 0 101.73 241.02
  L 88.04 269.30
  A 0.41 0.40 44.8 0 1 87.31 269.30
  Q 86.65 267.97 86.30 265.47
  Q 85.67 261.05 82.56 240.22
  A 0.89 0.89 0.0 0 0 81.68 239.46
  L 70.65 239.46
  A 0.67 0.66 -4.7 0 0 69.99 240.23
  L 78.07 287.23
  A 1.13 1.12 -4.8 0 0 79.18 288.16
  L 86.99 288.16
  A 3.13 3.10 19.8 0 0 89.38 287.05
  Q 89.96 286.36 90.67 285.18
  Q 94.38 278.99 96.32 274.81"
/>
<path stroke="#7cacc4" vector-effect="non-scaling-stroke" d="
  M 124.04 285.97
  A 1.41 1.41 0.0 0 0 125.15 288.24
  L 134.22 288.24
  A 3.15 3.14 -74.9 0 0 136.94 286.67
  L 139.59 282.08
  A 2.13 2.11 14.9 0 1 141.43 281.02
  L 156.26 281.02
  A 1.57 1.57 0.0 0 1 157.83 282.59
  L 157.83 286.61
  A 1.64 1.64 0.0 0 0 159.47 288.25
  L 169.33 288.25
  A 1.29 1.29 0.0 0 0 170.60 286.75
  L 162.63 240.43
  A 1.29 1.28 -4.8 0 0 161.36 239.36
  L 153.71 239.36
  A 3.38 3.37 -74.7 0 0 150.80 241.03
  L 126.23 283.16
  A 0.96 0.80 84.8 0 1 126.14 283.29
  L 124.04 285.97"
/>
<path stroke="#7cacc4" vector-effect="non-scaling-stroke" d="
  M 187.11 251.14
  A 1.21 1.21 0.0 0 1 188.29 252.59
  L 181.07 287.37
  A 0.70 0.69 6.0 0 0 181.75 288.21
  L 191.58 288.21
  A 1.67 1.66 -73.9 0 0 192.99 287.43
  Q 193.65 286.40 194.02 284.56
  Q 199.62 257.44 200.67 251.93
  A 0.83 0.82 -84.5 0 1 201.48 251.26
  L 212.00 251.26
  A 2.36 2.36 0.0 0 0 214.31 249.38
  L 216.11 240.70
  A 1.05 1.05 0.0 0 0 215.08 239.43
  L 179.51 239.43
  A 1.77 1.77 0.0 0 0 177.78 240.84
  L 175.94 249.70
  A 1.20 1.20 0.0 0 0 177.11 251.14
  L 187.11 251.14"
/>
<path stroke="#7cacc4" vector-effect="non-scaling-stroke" d="
  M 249.59 277.30
  L 228.60 277.30
  A 1.07 1.07 0.0 0 1 227.55 276.01
  L 228.76 270.18
  A 1.56 1.55 -84.0 0 1 230.28 268.94
  L 246.13 268.94
  A 0.81 0.80 5.7 0 0 246.92 268.30
  L 248.67 259.88
  A 1.13 1.13 0.0 0 0 247.56 258.52
  L 232.34 258.52
  A 0.91 0.91 0.0 0 1 231.45 257.42
  L 232.61 251.84
  A 1.31 1.30 5.7 0 1 233.89 250.80
  L 254.21 250.80
  A 1.66 1.65 -84.2 0 0 255.83 249.47
  L 257.71 240.45
  A 0.78 0.78 0.0 0 0 256.95 239.51
  Q 236.48 239.41 224.68 239.40
  Q 222.58 239.40 222.40 241.13
  Q 222.33 241.89 222.31 241.99
  Q 217.85 264.52 212.95 287.27
  A 0.78 0.77 -83.9 0 0 213.70 288.21
  L 247.07 288.21
  A 1.36 1.36 0.0 0 0 248.40 287.12
  L 250.27 278.14
  A 0.70 0.70 0.0 0 0 249.59 277.30"
/>
<path stroke="#7cacc4" vector-effect="non-scaling-stroke" d="
  M 342.71 251.19
  L 357.67 251.19
  A 2.00 2.00 0.0 0 0 359.63 249.60
  L 361.47 240.74
  A 1.09 1.08 -84.3 0 0 360.41 239.44
  L 330.79 239.44
  A 0.78 0.78 0.0 0 0 330.01 240.14
  Q 329.72 242.92 328.84 246.47
  C 327.78 250.74 329.85 252.65 331.33 255.75
  A 1.10 1.10 0.0 0 1 330.81 257.21
  Q 323.36 260.78 319.24 267.97
  Q 316.54 272.68 317.11 279.43
  C 317.34 282.15 318.95 284.10 321.00 285.60
  C 327.94 290.72 337.38 289.88 344.86 286.21
  C 347.37 284.99 348.66 285.48 350.00 287.58
  A 1.39 1.39 0.0 0 0 351.17 288.22
  L 360.74 288.22
  A 1.33 1.33 0.0 0 0 361.88 286.20
  Q 361.32 285.29 358.02 280.22
  Q 356.46 277.82 358.08 275.82
  Q 362.26 270.69 365.14 263.89
  Q 366.30 261.16 366.45 259.48
  A 1.82 1.82 0.0 0 0 364.64 257.49
  L 358.01 257.49
  A 2.43 2.43 0.0 0 0 355.66 259.31
  Q 354.48 263.85 351.91 267.48
  A 0.49 0.49 0.0 0 1 351.08 267.44
  L 342.20 252.07
  A 0.59 0.59 0.0 0 1 342.71 251.19"
/>
<path stroke="#7cacc4" vector-effect="non-scaling-stroke" d="
  M 416.36 288.15
  A 0.94 0.94 0.0 0 0 417.28 287.40
  L 419.28 277.73
  A 0.94 0.94 0.0 0 0 418.36 276.60
  L 400.68 276.60
  A 0.94 0.94 0.0 0 1 399.76 275.47
  L 407.00 240.59
  A 0.94 0.94 0.0 0 0 406.08 239.46
  L 395.71 239.46
  A 0.94 0.94 0.0 0 0 394.79 240.21
  L 385.07 287.02
  A 0.94 0.94 0.0 0 0 386.00 288.15
  L 416.36 288.15"
/>
<path stroke="#7cacc4" vector-effect="non-scaling-stroke" d="
  M 435.54 288.28
  A 1.02 1.02 0.0 0 0 436.54 287.47
  L 446.26 240.63
  A 1.02 1.02 0.0 0 0 445.26 239.40
  L 434.96 239.40
  A 1.02 1.02 0.0 0 0 433.96 240.21
  L 424.23 287.05
  A 1.02 1.02 0.0 0 0 425.23 288.28
  L 435.54 288.28"
/>
<path stroke="#7cacc4" vector-effect="non-scaling-stroke" d="
  M 509.28 269.51
  A 0.66 0.65 -84.0 0 1 509.92 268.99
  L 525.84 268.99
  A 0.76 0.76 0.0 0 1 526.59 269.90
  L 522.97 287.30
  A 0.82 0.82 0.0 0 0 523.77 288.28
  L 534.02 288.28
  A 0.95 0.95 0.0 0 0 534.87 287.75
  Q 535.63 286.13 536.02 284.24
  Q 540.06 264.39 545.11 240.66
  A 0.95 0.95 0.0 0 0 544.18 239.52
  L 534.05 239.52
  A 1.37 1.36 6.0 0 0 532.71 240.60
  L 529.47 256.20
  A 0.83 0.82 5.5 0 1 528.66 256.86
  L 513.09 256.86
  A 0.99 0.98 5.7 0 1 512.12 255.68
  L 515.37 240.05
  A 0.51 0.50 5.6 0 0 514.87 239.45
  L 504.69 239.45
  A 1.94 1.93 5.8 0 0 502.79 240.99
  L 493.21 287.16
  A 0.91 0.91 0.0 0 0 494.10 288.26
  L 503.88 288.26
  A 1.85 1.84 5.7 0 0 505.69 286.79
  L 509.28 269.51"
/>
<path stroke="#7cacc4" vector-effect="non-scaling-stroke" d="
  M 560.86 251.19
  A 1.21 1.21 0.0 0 1 562.04 252.64
  L 554.82 287.44
  A 0.70 0.69 6.0 0 0 555.50 288.28
  L 565.34 288.28
  A 1.67 1.67 0.0 0 0 566.75 287.50
  Q 567.41 286.47 567.78 284.63
  Q 573.38 257.49 574.43 251.98
  A 0.83 0.83 0.0 0 1 575.24 251.31
  L 585.76 251.30
  A 2.36 2.36 0.0 0 0 588.07 249.42
  L 589.87 240.74
  A 1.05 1.05 0.0 0 0 588.84 239.47
  L 553.25 239.47
  A 1.77 1.77 0.0 0 0 551.52 240.89
  L 549.68 249.75
  A 1.20 1.20 0.0 0 0 550.85 251.19
  L 560.86 251.19"
/>
<path stroke="#7cacc4" vector-effect="non-scaling-stroke" d="
  M 294.47 287.84
  Q 294.50 287.18 294.34 286.47
  Q 293.07 281.04 289.95 271.97
  A 2.67 2.66 -25.4 0 1 291.07 268.84
  Q 299.13 263.88 299.79 254.33
  C 300.50 243.80 293.44 239.45 284.00 239.41
  Q 274.28 239.37 266.51 239.46
  A 1.31 1.30 5.4 0 0 265.24 240.50
  L 255.55 287.18
  A 0.89 0.89 0.0 0 0 256.42 288.25
  L 266.16 288.25
  A 1.82 1.82 0.0 0 0 267.94 286.80
  L 270.62 273.90
  A 1.10 1.09 -89.6 0 1 271.48 273.05
  Q 273.69 272.62 276.90 273.20
  A 1.70 1.70 0.0 0 1 278.24 274.47
  L 281.17 286.71
  A 2.07 2.06 -6.7 0 0 283.18 288.29
  L 293.99 288.29
  A 0.48 0.48 0.0 0 0 294.47 287.84"
/>
<path stroke="#aeaeae" vector-effect="non-scaling-stroke" d="
  M 173.50 306.27
  A 0.50 0.49 18.8 0 1 172.80 306.61
  L 168.26 304.45
  A 1.16 1.15 -29.9 0 0 167.77 304.32
  Q 163.12 304.01 159.93 306.69
  C 154.72 311.07 154.75 320.04 159.52 324.63
  C 163.44 328.40 167.24 327.40 171.70 325.72
  A 1.94 1.91 44.2 0 1 173.03 325.71
  L 175.65 326.65
  A 1.29 1.29 0.0 0 0 177.38 325.38
  Q 177.16 320.59 177.08 302.46
  C 177.07 300.11 177.66 298.28 176.58 295.94
  A 1.61 1.43 -37.6 0 0 174.04 295.76
  Q 173.37 296.49 173.41 298.27
  Q 173.57 305.92 173.50 306.27"
/>
<path stroke="#aeaeae" vector-effect="non-scaling-stroke" d="
  M 376.7350 296.7169
  A 1.39 1.39 0.0 0 0 375.3426 295.3294
  L 374.5826 295.3307
  A 1.39 1.39 0.0 0 0 373.1950 296.7231
  L 373.2450 325.3831
  A 1.39 1.39 0.0 0 0 374.6374 326.7706
  L 375.3974 326.7693
  A 1.39 1.39 0.0 0 0 376.7850 325.3769
  L 376.7350 296.7169"
/>
<path stroke="#aeaeae" vector-effect="non-scaling-stroke" d="
  M 187.78 297.79
  A 2.26 2.26 0.0 0 0 185.52 295.53
  A 2.26 2.26 0.0 0 0 183.26 297.79
  A 2.26 2.26 0.0 0 0 185.52 300.05
  A 2.26 2.26 0.0 0 0 187.78 297.79"
/>
<path stroke="#aeaeae" vector-effect="non-scaling-stroke" d="
  M 214.82 319.90
  Q 217.20 319.90 220.43 319.90
  A 1.88 1.88 0.0 0 1 222.20 321.14
  L 223.67 325.18
  A 2.64 2.62 -10.9 0 0 226.23 326.90
  L 226.37 326.90
  A 1.39 1.38 -10.1 0 0 227.68 325.03
  Q 222.40 311.17 216.74 298.02
  Q 216.13 296.61 214.84 296.61
  Q 213.55 296.61 212.94 298.01
  Q 207.26 311.16 201.96 325.01
  A 1.39 1.38 10.2 0 0 203.26 326.88
  L 203.40 326.88
  A 2.64 2.62 10.9 0 0 205.97 325.17
  L 207.44 321.13
  A 1.88 1.88 0.0 0 1 209.22 319.89
  Q 212.45 319.90 214.82 319.90"
/>
<path stroke="#aeaeae" vector-effect="non-scaling-stroke" d="
  M 320.59 320.99
  A 2.62 2.62 0.0 0 0 321.58 323.62
  Q 327.91 328.37 335.14 326.68
  C 339.49 325.66 342.14 322.46 342.01 318.22
  Q 341.85 313.17 336.83 311.39
  Q 334.30 310.50 328.03 308.51
  Q 324.07 307.25 325.38 303.55
  A 2.85 2.78 76.3 0 1 325.90 302.67
  Q 328.81 299.39 333.89 300.51
  Q 334.30 300.60 338.16 302.35
  A 1.78 1.78 0.0 0 0 340.48 301.53
  L 340.52 301.44
  A 1.85 1.83 27.9 0 0 339.76 299.00
  C 333.34 295.47 321.55 295.26 321.15 304.90
  C 320.75 314.47 338.99 311.77 338.29 318.96
  Q 338.07 321.19 335.75 322.55
  Q 330.95 325.36 322.53 320.10
  A 1.28 1.27 -68.0 0 0 320.61 320.92
  L 320.59 320.99"
/>
<path stroke="#a4a5a5" vector-effect="non-scaling-stroke" d="
  M 434.00 326.63
  A 1.09 1.09 0.0 0 0 435.09 325.54
  L 435.09 309.36
  A 1.21 1.20 85.2 0 1 436.09 308.17
  L 439.81 307.53
  A 1.34 1.33 -49.8 0 0 439.59 304.88
  L 436.39 304.88
  A 1.28 1.28 0.0 0 1 435.11 303.61
  Q 435.09 300.61 434.87 299.75
  Q 434.65 298.89 433.69 298.80
  A 1.66 1.64 -82.1 0 0 431.91 300.16
  Q 431.44 302.74 431.33 303.34
  A 1.29 1.26 80.8 0 1 430.72 304.21
  L 428.56 305.45
  A 1.21 1.21 0.0 0 0 428.92 307.68
  L 430.32 307.97
  A 1.64 1.64 0.0 0 1 431.63 309.58
  L 431.63 325.53
  A 1.10 1.09 90.0 0 0 432.72 326.63
  L 434.00 326.63"
/>
<path stroke="#aeaeae" vector-effect="non-scaling-stroke" d="
  M 276.42 326.60
  A 1.09 1.09 0.0 0 0 277.51 325.52
  L 277.49 309.40
  A 1.20 1.20 0.0 0 1 278.49 308.21
  L 282.19 307.57
  A 1.33 1.33 0.0 0 0 281.97 304.93
  L 278.78 304.93
  A 1.28 1.28 0.0 0 1 277.51 303.67
  Q 277.49 300.68 277.27 299.82
  Q 277.05 298.97 276.09 298.88
  A 1.65 1.63 -82.1 0 0 274.32 300.23
  Q 273.85 302.80 273.74 303.40
  A 1.29 1.25 80.8 0 1 273.13 304.27
  L 270.98 305.51
  A 1.21 1.20 -54.3 0 0 271.34 307.73
  L 272.74 308.02
  A 1.64 1.64 0.0 0 1 274.05 309.62
  L 274.06 325.51
  A 1.10 1.09 90.0 0 0 275.15 326.61
  L 276.42 326.60"
/>
<path stroke="#aeaeae" vector-effect="non-scaling-stroke" d="
  M 307.08 315.81
  A 11.31 11.31 0.0 0 0 295.77 304.50
  A 11.31 11.31 0.0 0 0 284.46 315.81
  A 11.31 11.31 0.0 0 0 295.77 327.12
  A 11.31 11.31 0.0 0 0 307.08 315.81"
/>
<path stroke="#a4a5a5" vector-effect="non-scaling-stroke" d="
  M 501.56 323.07
  A 1.06 1.06 0.0 0 0 499.92 322.18
  Q 494.07 326.02 489.65 322.24
  Q 487.56 320.45 487.05 317.65
  A 0.62 0.62 0.0 0 1 487.66 316.92
  L 502.50 316.92
  A 1.13 1.13 0.0 0 0 503.63 315.74
  Q 503.42 311.47 501.12 308.31
  C 498.15 304.22 492.56 303.15 488.45 306.04
  C 481.29 311.07 482.12 322.74 489.78 326.20
  Q 494.34 328.27 500.41 325.54
  A 1.96 1.95 -12.2 0 0 501.56 323.76
  L 501.56 323.07"
/>
<path stroke="#a4a5a5" vector-effect="non-scaling-stroke" d="
  M 233.58 326.85
  A 1.50 1.50 0.0 0 0 235.31 325.39
  Q 235.52 314.96 235.70 313.56
  Q 235.89 311.99 236.94 309.54
  A 1.65 1.65 0.0 0 1 237.80 308.68
  Q 241.64 306.98 244.38 308.15
  A 0.81 0.81 0.0 0 0 245.51 307.38
  Q 245.41 303.94 242.52 304.45
  Q 240.98 304.71 236.94 305.67
  A 3.46 3.41 43.8 0 1 235.43 305.69
  L 232.85 305.15
  A 0.67 0.66 5.7 0 0 232.05 305.80
  L 231.99 324.94
  A 1.94 1.93 -83.9 0 0 233.51 326.83
  L 233.58 326.85"
/>
<path stroke="#aeaeae" vector-effect="non-scaling-stroke" d="
  M 245.81 315.93
  C 245.89 322.09 250.09 327.77 256.79 326.96
  Q 257.79 326.84 261.99 325.48
  A 2.15 2.15 0.0 0 1 263.51 325.57
  L 265.36 326.41
  A 1.14 1.13 -79.4 0 0 266.96 325.31
  Q 266.84 323.40 266.75 315.69
  Q 266.67 307.97 266.74 306.06
  A 1.14 1.13 78.1 0 0 265.11 305.00
  L 263.28 305.88
  A 2.15 2.15 0.0 0 1 261.76 306.00
  Q 257.54 304.73 256.54 304.64
  C 249.82 303.99 245.74 309.76 245.81 315.93"
/>
<path stroke="#aeaeae" vector-effect="non-scaling-stroke" d="
  M 345.45 316.02
  C 345.54 322.21 349.78 327.90 356.52 327.07
  Q 357.52 326.95 361.73 325.57
  A 2.16 2.16 0.0 0 1 363.26 325.65
  L 365.12 326.49
  A 1.14 1.14 0.0 0 0 366.72 325.38
  Q 366.60 323.46 366.49 315.71
  Q 366.38 307.96 366.44 306.04
  A 1.14 1.14 0.0 0 0 364.81 304.98
  L 362.97 305.87
  A 2.16 2.16 0.0 0 1 361.45 305.99
  Q 357.20 304.74 356.19 304.65
  C 349.44 304.01 345.36 309.82 345.45 316.02"
/>
<path stroke="#a4a5a5" vector-effect="non-scaling-stroke" d="
  M 403.35 315.85
  C 403.36 321.97 407.48 327.65 414.14 326.91
  Q 415.14 326.81 419.31 325.50
  A 2.14 2.14 0.0 0 1 420.83 325.59
  L 422.65 326.45
  A 1.13 1.12 -78.9 0 0 424.25 325.37
  Q 424.16 323.47 424.14 315.81
  Q 424.13 308.15 424.22 306.25
  A 1.13 1.12 78.7 0 0 422.61 305.18
  L 420.79 306.04
  A 2.14 2.14 0.0 0 1 419.28 306.15
  Q 415.10 304.85 414.10 304.75
  C 407.44 304.04 403.34 309.73 403.35 315.85"
/>
<path stroke="#a4a5a5" vector-effect="non-scaling-stroke" d="
  M 454.8572 304.6175
  A 11.33 11.07 -82.1 0 0 442.3351 314.3185
  A 11.33 11.07 -82.1 0 0 451.7428 327.0625
  A 11.33 11.07 -82.1 0 0 464.2649 317.3615
  A 11.33 11.07 -82.1 0 0 454.8572 304.6175"
/>
<path stroke="#a4a5a5" vector-effect="non-scaling-stroke" d="
  M 483.51 306.83
  L 482.92 305.81
  A 2.47 2.47 0.0 0 0 480.86 304.56
  Q 477.03 304.40 474.10 305.75
  A 1.04 0.97 -49.5 0 1 473.47 305.82
  L 470.99 305.31
  A 1.00 1.00 0.0 0 0 469.79 306.30
  L 469.89 325.09
  A 1.72 1.72 0.0 0 0 471.58 326.80
  L 471.62 326.80
  A 1.70 1.69 87.3 0 0 473.28 324.97
  C 472.90 320.23 472.26 312.05 475.14 308.82
  Q 476.68 307.09 482.57 308.17
  A 0.90 0.90 0.0 0 0 483.51 306.83"
/>
<path stroke="#aeaeae" vector-effect="non-scaling-stroke" d="
  M 187.6134 306.2868
  A 1.49 1.49 0.0 0 0 186.1286 304.7916
  L 185.2686 304.7886
  A 1.49 1.49 0.0 0 0 183.7734 306.2734
  L 183.7066 325.4132
  A 1.49 1.49 0.0 0 0 185.1914 326.9084
  L 186.0514 326.9114
  A 1.49 1.49 0.0 0 0 187.5466 325.4266
  L 187.6134 306.2868"
/>
<path stroke="#aeaeae" vector-effect="non-scaling-stroke" d="
  M 391.03 326.93
  Q 392.63 326.93 393.08 325.84
  Q 396.89 316.58 400.96 306.42
  A 1.22 1.22 0.0 0 0 399.88 304.75
  L 399.82 304.75
  A 2.39 2.37 11.9 0 0 397.51 306.24
  Q 394.46 313.87 391.34 321.69
  Q 391.27 321.86 391.04 321.86
  Q 390.81 321.86 390.74 321.69
  Q 387.65 313.86 384.62 306.22
  A 2.39 2.37 -11.7 0 0 382.32 304.72
  L 382.26 304.72
  A 1.22 1.22 0.0 0 0 381.17 306.38
  Q 385.21 316.56 388.99 325.83
  Q 389.43 326.93 391.03 326.93"
/>
<path stroke="#7cacc4" vector-effect="non-scaling-stroke" d="
  M 153.40 256.33
  Q 153.07 256.53 152.90 256.90
  Q 150.36 262.45 146.32 269.29
  A 0.53 0.53 0.0 0 0 146.67 270.08
  Q 151.10 270.91 155.44 270.27
  A 1.16 1.16 0.0 0 0 156.41 268.92
  L 154.32 256.76
  A 0.62 0.62 0.0 0 0 153.40 256.33"
/>
<path stroke="#7cacc4" vector-effect="non-scaling-stroke" d="
  M 342.46 275.23
  L 336.71 265.27
  A 1.18 1.18 0.0 0 0 335.09 264.84
  L 334.94 264.93
  A 9.08 6.88 -30.0 0 0 330.51 275.43
  L 330.56 275.51
  A 9.08 6.88 -30.0 0 0 341.87 276.93
  L 342.02 276.84
  A 1.18 1.18 0.0 0 0 342.46 275.23"
/>
<path stroke="#7cacc4" vector-effect="non-scaling-stroke" d="
  M 273.90 261.86
  C 278.50 262.56 283.08 262.20 286.16 258.45
  C 287.40 256.93 287.54 253.55 286.43 252.21
  C 285.03 250.53 279.44 250.47 277.10 250.79
  A 2.65 2.65 0.0 0 0 274.88 252.87
  L 273.21 260.88
  A 0.83 0.83 0.0 0 0 273.90 261.86"
/>
<path stroke="#aeaeae" vector-effect="non-scaling-stroke" d="
  M 166.7306 307.8508
  A 7.92 7.03 -89.2 0 0 159.5907 315.6718
  A 7.92 7.03 -89.2 0 0 166.5094 323.6892
  A 7.92 7.03 -89.2 0 0 173.6493 315.8682
  A 7.92 7.03 -89.2 0 0 166.7306 307.8508"
/>
<path stroke="#aeaeae" vector-effect="non-scaling-stroke" d="
  M 215.50 303.80
  A 0.94 0.94 0.0 0 0 213.74 303.82
  L 209.65 315.18
  A 0.94 0.94 0.0 0 0 210.54 316.44
  L 219.02 316.44
  A 0.94 0.94 0.0 0 0 219.90 315.16
  L 215.50 303.80"
/>
<path stroke="#aeaeae" vector-effect="non-scaling-stroke" d="
  M 295.4438 307.7944
  A 8.03 7.54 -91.9 0 0 288.1741 316.0700
  A 8.03 7.54 -91.9 0 0 295.9762 323.8456
  A 8.03 7.54 -91.9 0 0 303.2459 315.5700
  A 8.03 7.54 -91.9 0 0 295.4438 307.7944"
/>
<path stroke="#a4a5a5" vector-effect="non-scaling-stroke" d="
  M 487.85 313.90
  L 499.23 314.14
  A 0.43 0.43 0.0 0 0 499.67 313.72
  L 499.67 313.60
  A 6.11 6.09 1.2 0 0 493.69 307.38
  L 493.67 307.38
  A 6.11 6.09 1.2 0 0 487.43 313.34
  L 487.43 313.46
  A 0.43 0.43 0.0 0 0 487.85 313.90"
/>
<path stroke="#aeaeae" vector-effect="non-scaling-stroke" d="
  M 256.4039 307.5828
  A 8.17 7.19 -88.5 0 0 249.0025 315.5618
  A 8.17 7.19 -88.5 0 0 255.9761 323.9172
  A 8.17 7.19 -88.5 0 0 263.3775 315.9382
  A 8.17 7.19 -88.5 0 0 256.4039 307.5828"
/>
<path stroke="#aeaeae" vector-effect="non-scaling-stroke" d="
  M 355.9878 307.6801
  A 8.06 7.05 -90.3 0 0 348.9801 315.7769
  A 8.06 7.05 -90.3 0 0 356.0722 323.7999
  A 8.06 7.05 -90.3 0 0 363.0799 315.7031
  A 8.06 7.05 -90.3 0 0 355.9878 307.6801"
/>
<path stroke="#a4a5a5" vector-effect="non-scaling-stroke" d="
  M 413.9331 307.5412
  A 8.20 7.16 -89.0 0 0 406.6311 315.6150
  A 8.20 7.16 -89.0 0 0 413.6469 323.9388
  A 8.20 7.16 -89.0 0 0 420.9489 315.8650
  A 8.20 7.16 -89.0 0 0 413.9331 307.5412"
/>
<path stroke="#a4a5a5" vector-effect="non-scaling-stroke" d="
  M 453.0550 307.6136
  A 8.26 7.72 -91.7 0 0 445.5834 316.0990
  A 8.26 7.72 -91.7 0 0 453.5450 324.1264
  A 8.26 7.72 -91.7 0 0 461.0166 315.6410
  A 8.26 7.72 -91.7 0 0 453.0550 307.6136"
/>
</g>
<g fill="#f3f3f3">
<path d="
  M 0.31 0.00
  L 0.30 421.35
  A 0.11 0.10 -14.9 0 1 0.24 421.44
  Q 0.12 421.49 0.00 421.54
  L 0.00 0.00
  L 0.31 0.00
  Z"
/>
<path d="
  M 610.00 0.00
  L 610.00 424.00
  L 1.50 424.00
  Q 1.66 423.77 2.07 423.61
  A 0.74 0.73 70.5 0 0 2.50 422.70
  L 2.12 421.57
  A 0.19 0.15 38.0 0 1 2.10 421.49
  L 2.20 0.78
  A 0.45 0.43 -79.3 0 0 1.93 0.37
  L 1.13 0.00
  L 610.00 0.00
  Z
  M 369.01 216.81
  Q 368.49 215.30 367.62 213.38
  Q 361.14 199.24 327.84 125.46
  C 321.11 110.55 317.00 90.37 296.25 89.85
  Q 291.28 89.72 288.48 89.80
  A 1.00 1.00 0.0 0 0 287.63 91.27
  Q 288.56 92.99 289.52 95.22
  C 303.45 127.29 312.94 150.00 325.26 176.78
  Q 326.90 180.35 336.84 203.41
  C 342.47 216.47 355.69 218.13 368.48 217.59
  A 0.59 0.59 0.0 0 0 369.01 216.81
  Z
  M 375.50 197.85
  Q 379.60 207.54 382.85 213.64
  Q 383.62 215.09 383.83 216.77
  A 0.73 0.72 -4.0 0 0 384.56 217.40
  Q 398.07 217.17 410.17 211.67
  C 428.08 203.54 435.68 184.54 429.12 166.07
  C 421.55 144.73 397.28 143.01 378.52 140.45
  C 373.07 139.70 367.55 138.09 362.94 135.91
  Q 357.13 133.15 356.08 128.27
  C 354.04 118.74 362.56 112.48 371.30 110.69
  Q 393.54 106.15 408.87 121.93
  A 1.24 1.24 0.0 0 0 410.84 121.69
  L 420.52 104.92
  A 1.29 1.29 0.0 0 0 420.29 103.34
  Q 412.46 96.08 402.78 93.05
  C 381.94 86.53 350.47 88.65 337.44 109.19
  Q 336.20 111.15 336.95 112.57
  Q 338.90 116.26 340.30 119.45
  Q 352.80 147.86 355.85 154.43
  C 357.47 157.94 362.16 158.41 366.82 159.40
  Q 370.50 160.18 386.29 162.43
  C 393.84 163.50 403.50 166.39 407.18 173.04
  C 410.19 178.50 408.44 186.46 403.95 190.24
  C 396.27 196.70 386.37 197.09 376.07 197.00
  A 0.61 0.61 0.0 0 0 375.50 197.85
  Z
  M 279.56 104.02
  L 228.99 216.29
  A 0.76 0.75 -77.5 0 0 229.66 217.35
  Q 249.85 217.72 252.02 217.56
  Q 254.53 217.38 255.26 216.23
  C 257.70 212.38 259.12 209.81 261.53 207.11
  Q 270.53 197.03 284.16 194.20
  C 290.26 192.94 298.86 193.64 304.69 193.15
  Q 311.62 192.55 313.82 186.14
  Q 315.88 180.14 312.07 175.50
  C 308.65 171.33 304.37 170.90 299.75 171.01
  Q 289.71 171.24 279.25 171.19
  Q 276.72 171.17 275.95 170.59
  A 0.66 0.65 -57.8 0 1 275.77 169.77
  Q 276.39 168.53 280.29 159.34
  Q 291.90 131.95 281.28 104.07
  A 0.93 0.93 0.0 0 0 279.56 104.02
  Z
  M 488.89 265.76
  L 479.31 265.76
  A 1.22 1.21 -84.2 0 0 478.12 266.73
  L 476.20 275.99
  A 1.65 1.64 89.5 0 1 474.98 277.24
  C 463.58 279.96 458.85 269.57 462.34 260.33
  Q 464.86 253.67 471.10 251.35
  C 476.50 249.35 479.66 251.10 484.13 253.96
  A 1.85 1.84 38.5 0 0 486.45 253.70
  C 488.66 251.46 491.97 248.93 493.04 246.40
  A 1.99 1.99 0.0 0 0 492.54 244.15
  C 484.38 236.76 472.50 237.05 463.28 242.20
  Q 456.65 245.91 452.37 253.42
  Q 445.64 265.25 449.85 277.13
  C 453.08 286.25 462.10 289.78 471.26 289.02
  Q 474.81 288.73 480.72 286.73
  C 483.93 285.65 486.36 284.95 487.01 281.52
  Q 488.26 274.88 489.94 267.05
  A 1.07 1.07 0.0 0 0 488.89 265.76
  Z
  M 96.32 274.81
  A 0.61 0.61 0.0 0 1 97.47 274.96
  L 99.55 287.02
  A 1.43 1.43 0.0 0 0 100.96 288.21
  L 108.95 288.21
  A 0.76 0.75 34.1 0 0 109.22 288.16
  Q 111.08 287.47 112.22 285.46
  Q 131.70 251.11 136.74 242.95
  Q 137.48 241.75 137.82 241.21
  A 1.14 1.14 0.0 0 0 136.88 239.47
  Q 129.85 239.32 127.42 239.37
  C 125.50 239.41 124.50 239.84 123.60 241.58
  Q 114.29 259.41 109.34 269.42
  A 0.39 0.39 0.0 0 1 108.60 269.31
  C 107.76 264.13 106.17 258.91 108.03 255.28
  Q 110.77 249.90 115.53 240.86
  A 1.03 1.02 13.8 0 0 114.62 239.36
  L 104.37 239.36
  A 2.93 2.93 0.0 0 0 101.73 241.02
  L 88.04 269.30
  A 0.41 0.40 44.8 0 1 87.31 269.30
  Q 86.65 267.97 86.30 265.47
  Q 85.67 261.05 82.56 240.22
  A 0.89 0.89 0.0 0 0 81.68 239.46
  L 70.65 239.46
  A 0.67 0.66 -4.7 0 0 69.99 240.23
  L 78.07 287.23
  A 1.13 1.12 -4.8 0 0 79.18 288.16
  L 86.99 288.16
  A 3.13 3.10 19.8 0 0 89.38 287.05
  Q 89.96 286.36 90.67 285.18
  Q 94.38 278.99 96.32 274.81
  Z
  M 124.04 285.97
  A 1.41 1.41 0.0 0 0 125.15 288.24
  L 134.22 288.24
  A 3.15 3.14 -74.9 0 0 136.94 286.67
  L 139.59 282.08
  A 2.13 2.11 14.9 0 1 141.43 281.02
  L 156.26 281.02
  A 1.57 1.57 0.0 0 1 157.83 282.59
  L 157.83 286.61
  A 1.64 1.64 0.0 0 0 159.47 288.25
  L 169.33 288.25
  A 1.29 1.29 0.0 0 0 170.60 286.75
  L 162.63 240.43
  A 1.29 1.28 -4.8 0 0 161.36 239.36
  L 153.71 239.36
  A 3.38 3.37 -74.7 0 0 150.80 241.03
  L 126.23 283.16
  A 0.96 0.80 84.8 0 1 126.14 283.29
  L 124.04 285.97
  Z
  M 187.11 251.14
  A 1.21 1.21 0.0 0 1 188.29 252.59
  L 181.07 287.37
  A 0.70 0.69 6.0 0 0 181.75 288.21
  L 191.58 288.21
  A 1.67 1.66 -73.9 0 0 192.99 287.43
  Q 193.65 286.40 194.02 284.56
  Q 199.62 257.44 200.67 251.93
  A 0.83 0.82 -84.5 0 1 201.48 251.26
  L 212.00 251.26
  A 2.36 2.36 0.0 0 0 214.31 249.38
  L 216.11 240.70
  A 1.05 1.05 0.0 0 0 215.08 239.43
  L 179.51 239.43
  A 1.77 1.77 0.0 0 0 177.78 240.84
  L 175.94 249.70
  A 1.20 1.20 0.0 0 0 177.11 251.14
  L 187.11 251.14
  Z
  M 249.59 277.30
  L 228.60 277.30
  A 1.07 1.07 0.0 0 1 227.55 276.01
  L 228.76 270.18
  A 1.56 1.55 -84.0 0 1 230.28 268.94
  L 246.13 268.94
  A 0.81 0.80 5.7 0 0 246.92 268.30
  L 248.67 259.88
  A 1.13 1.13 0.0 0 0 247.56 258.52
  L 232.34 258.52
  A 0.91 0.91 0.0 0 1 231.45 257.42
  L 232.61 251.84
  A 1.31 1.30 5.7 0 1 233.89 250.80
  L 254.21 250.80
  A 1.66 1.65 -84.2 0 0 255.83 249.47
  L 257.71 240.45
  A 0.78 0.78 0.0 0 0 256.95 239.51
  Q 236.48 239.41 224.68 239.40
  Q 222.58 239.40 222.40 241.13
  Q 222.33 241.89 222.31 241.99
  Q 217.85 264.52 212.95 287.27
  A 0.78 0.77 -83.9 0 0 213.70 288.21
  L 247.07 288.21
  A 1.36 1.36 0.0 0 0 248.40 287.12
  L 250.27 278.14
  A 0.70 0.70 0.0 0 0 249.59 277.30
  Z
  M 342.71 251.19
  L 357.67 251.19
  A 2.00 2.00 0.0 0 0 359.63 249.60
  L 361.47 240.74
  A 1.09 1.08 -84.3 0 0 360.41 239.44
  L 330.79 239.44
  A 0.78 0.78 0.0 0 0 330.01 240.14
  Q 329.72 242.92 328.84 246.47
  C 327.78 250.74 329.85 252.65 331.33 255.75
  A 1.10 1.10 0.0 0 1 330.81 257.21
  Q 323.36 260.78 319.24 267.97
  Q 316.54 272.68 317.11 279.43
  C 317.34 282.15 318.95 284.10 321.00 285.60
  C 327.94 290.72 337.38 289.88 344.86 286.21
  C 347.37 284.99 348.66 285.48 350.00 287.58
  A 1.39 1.39 0.0 0 0 351.17 288.22
  L 360.74 288.22
  A 1.33 1.33 0.0 0 0 361.88 286.20
  Q 361.32 285.29 358.02 280.22
  Q 356.46 277.82 358.08 275.82
  Q 362.26 270.69 365.14 263.89
  Q 366.30 261.16 366.45 259.48
  A 1.82 1.82 0.0 0 0 364.64 257.49
  L 358.01 257.49
  A 2.43 2.43 0.0 0 0 355.66 259.31
  Q 354.48 263.85 351.91 267.48
  A 0.49 0.49 0.0 0 1 351.08 267.44
  L 342.20 252.07
  A 0.59 0.59 0.0 0 1 342.71 251.19
  Z
  M 416.36 288.15
  A 0.94 0.94 0.0 0 0 417.28 287.40
  L 419.28 277.73
  A 0.94 0.94 0.0 0 0 418.36 276.60
  L 400.68 276.60
  A 0.94 0.94 0.0 0 1 399.76 275.47
  L 407.00 240.59
  A 0.94 0.94 0.0 0 0 406.08 239.46
  L 395.71 239.46
  A 0.94 0.94 0.0 0 0 394.79 240.21
  L 385.07 287.02
  A 0.94 0.94 0.0 0 0 386.00 288.15
  L 416.36 288.15
  Z
  M 435.54 288.28
  A 1.02 1.02 0.0 0 0 436.54 287.47
  L 446.26 240.63
  A 1.02 1.02 0.0 0 0 445.26 239.40
  L 434.96 239.40
  A 1.02 1.02 0.0 0 0 433.96 240.21
  L 424.23 287.05
  A 1.02 1.02 0.0 0 0 425.23 288.28
  L 435.54 288.28
  Z
  M 509.28 269.51
  A 0.66 0.65 -84.0 0 1 509.92 268.99
  L 525.84 268.99
  A 0.76 0.76 0.0 0 1 526.59 269.90
  L 522.97 287.30
  A 0.82 0.82 0.0 0 0 523.77 288.28
  L 534.02 288.28
  A 0.95 0.95 0.0 0 0 534.87 287.75
  Q 535.63 286.13 536.02 284.24
  Q 540.06 264.39 545.11 240.66
  A 0.95 0.95 0.0 0 0 544.18 239.52
  L 534.05 239.52
  A 1.37 1.36 6.0 0 0 532.71 240.60
  L 529.47 256.20
  A 0.83 0.82 5.5 0 1 528.66 256.86
  L 513.09 256.86
  A 0.99 0.98 5.7 0 1 512.12 255.68
  L 515.37 240.05
  A 0.51 0.50 5.6 0 0 514.87 239.45
  L 504.69 239.45
  A 1.94 1.93 5.8 0 0 502.79 240.99
  L 493.21 287.16
  A 0.91 0.91 0.0 0 0 494.10 288.26
  L 503.88 288.26
  A 1.85 1.84 5.7 0 0 505.69 286.79
  L 509.28 269.51
  Z
  M 560.86 251.19
  A 1.21 1.21 0.0 0 1 562.04 252.64
  L 554.82 287.44
  A 0.70 0.69 6.0 0 0 555.50 288.28
  L 565.34 288.28
  A 1.67 1.67 0.0 0 0 566.75 287.50
  Q 567.41 286.47 567.78 284.63
  Q 573.38 257.49 574.43 251.98
  A 0.83 0.83 0.0 0 1 575.24 251.31
  L 585.76 251.30
  A 2.36 2.36 0.0 0 0 588.07 249.42
  L 589.87 240.74
  A 1.05 1.05 0.0 0 0 588.84 239.47
  L 553.25 239.47
  A 1.77 1.77 0.0 0 0 551.52 240.89
  L 549.68 249.75
  A 1.20 1.20 0.0 0 0 550.85 251.19
  L 560.86 251.19
  Z
  M 294.47 287.84
  Q 294.50 287.18 294.34 286.47
  Q 293.07 281.04 289.95 271.97
  A 2.67 2.66 -25.4 0 1 291.07 268.84
  Q 299.13 263.88 299.79 254.33
  C 300.50 243.80 293.44 239.45 284.00 239.41
  Q 274.28 239.37 266.51 239.46
  A 1.31 1.30 5.4 0 0 265.24 240.50
  L 255.55 287.18
  A 0.89 0.89 0.0 0 0 256.42 288.25
  L 266.16 288.25
  A 1.82 1.82 0.0 0 0 267.94 286.80
  L 270.62 273.90
  A 1.10 1.09 -89.6 0 1 271.48 273.05
  Q 273.69 272.62 276.90 273.20
  A 1.70 1.70 0.0 0 1 278.24 274.47
  L 281.17 286.71
  A 2.07 2.06 -6.7 0 0 283.18 288.29
  L 293.99 288.29
  A 0.48 0.48 0.0 0 0 294.47 287.84
  Z
  M 173.50 306.27
  A 0.50 0.49 18.8 0 1 172.80 306.61
  L 168.26 304.45
  A 1.16 1.15 -29.9 0 0 167.77 304.32
  Q 163.12 304.01 159.93 306.69
  C 154.72 311.07 154.75 320.04 159.52 324.63
  C 163.44 328.40 167.24 327.40 171.70 325.72
  A 1.94 1.91 44.2 0 1 173.03 325.71
  L 175.65 326.65
  A 1.29 1.29 0.0 0 0 177.38 325.38
  Q 177.16 320.59 177.08 302.46
  C 177.07 300.11 177.66 298.28 176.58 295.94
  A 1.61 1.43 -37.6 0 0 174.04 295.76
  Q 173.37 296.49 173.41 298.27
  Q 173.57 305.92 173.50 306.27
  Z
  M 376.7350 296.7169
  A 1.39 1.39 0.0 0 0 375.3426 295.3294
  L 374.5826 295.3307
  A 1.39 1.39 0.0 0 0 373.1950 296.7231
  L 373.2450 325.3831
  A 1.39 1.39 0.0 0 0 374.6374 326.7706
  L 375.3974 326.7693
  A 1.39 1.39 0.0 0 0 376.7850 325.3769
  L 376.7350 296.7169
  Z
  M 187.78 297.79
  A 2.26 2.26 0.0 0 0 185.52 295.53
  A 2.26 2.26 0.0 0 0 183.26 297.79
  A 2.26 2.26 0.0 0 0 185.52 300.05
  A 2.26 2.26 0.0 0 0 187.78 297.79
  Z
  M 214.82 319.90
  Q 217.20 319.90 220.43 319.90
  A 1.88 1.88 0.0 0 1 222.20 321.14
  L 223.67 325.18
  A 2.64 2.62 -10.9 0 0 226.23 326.90
  L 226.37 326.90
  A 1.39 1.38 -10.1 0 0 227.68 325.03
  Q 222.40 311.17 216.74 298.02
  Q 216.13 296.61 214.84 296.61
  Q 213.55 296.61 212.94 298.01
  Q 207.26 311.16 201.96 325.01
  A 1.39 1.38 10.2 0 0 203.26 326.88
  L 203.40 326.88
  A 2.64 2.62 10.9 0 0 205.97 325.17
  L 207.44 321.13
  A 1.88 1.88 0.0 0 1 209.22 319.89
  Q 212.45 319.90 214.82 319.90
  Z
  M 320.59 320.99
  A 2.62 2.62 0.0 0 0 321.58 323.62
  Q 327.91 328.37 335.14 326.68
  C 339.49 325.66 342.14 322.46 342.01 318.22
  Q 341.85 313.17 336.83 311.39
  Q 334.30 310.50 328.03 308.51
  Q 324.07 307.25 325.38 303.55
  A 2.85 2.78 76.3 0 1 325.90 302.67
  Q 328.81 299.39 333.89 300.51
  Q 334.30 300.60 338.16 302.35
  A 1.78 1.78 0.0 0 0 340.48 301.53
  L 340.52 301.44
  A 1.85 1.83 27.9 0 0 339.76 299.00
  C 333.34 295.47 321.55 295.26 321.15 304.90
  C 320.75 314.47 338.99 311.77 338.29 318.96
  Q 338.07 321.19 335.75 322.55
  Q 330.95 325.36 322.53 320.10
  A 1.28 1.27 -68.0 0 0 320.61 320.92
  L 320.59 320.99
  Z
  M 434.00 326.63
  A 1.09 1.09 0.0 0 0 435.09 325.54
  L 435.09 309.36
  A 1.21 1.20 85.2 0 1 436.09 308.17
  L 439.81 307.53
  A 1.34 1.33 -49.8 0 0 439.59 304.88
  L 436.39 304.88
  A 1.28 1.28 0.0 0 1 435.11 303.61
  Q 435.09 300.61 434.87 299.75
  Q 434.65 298.89 433.69 298.80
  A 1.66 1.64 -82.1 0 0 431.91 300.16
  Q 431.44 302.74 431.33 303.34
  A 1.29 1.26 80.8 0 1 430.72 304.21
  L 428.56 305.45
  A 1.21 1.21 0.0 0 0 428.92 307.68
  L 430.32 307.97
  A 1.64 1.64 0.0 0 1 431.63 309.58
  L 431.63 325.53
  A 1.10 1.09 90.0 0 0 432.72 326.63
  L 434.00 326.63
  Z
  M 276.42 326.60
  A 1.09 1.09 0.0 0 0 277.51 325.52
  L 277.49 309.40
  A 1.20 1.20 0.0 0 1 278.49 308.21
  L 282.19 307.57
  A 1.33 1.33 0.0 0 0 281.97 304.93
  L 278.78 304.93
  A 1.28 1.28 0.0 0 1 277.51 303.67
  Q 277.49 300.68 277.27 299.82
  Q 277.05 298.97 276.09 298.88
  A 1.65 1.63 -82.1 0 0 274.32 300.23
  Q 273.85 302.80 273.74 303.40
  A 1.29 1.25 80.8 0 1 273.13 304.27
  L 270.98 305.51
  A 1.21 1.20 -54.3 0 0 271.34 307.73
  L 272.74 308.02
  A 1.64 1.64 0.0 0 1 274.05 309.62
  L 274.06 325.51
  A 1.10 1.09 90.0 0 0 275.15 326.61
  L 276.42 326.60
  Z
  M 307.08 315.81
  A 11.31 11.31 0.0 0 0 295.77 304.50
  A 11.31 11.31 0.0 0 0 284.46 315.81
  A 11.31 11.31 0.0 0 0 295.77 327.12
  A 11.31 11.31 0.0 0 0 307.08 315.81
  Z
  M 501.56 323.07
  A 1.06 1.06 0.0 0 0 499.92 322.18
  Q 494.07 326.02 489.65 322.24
  Q 487.56 320.45 487.05 317.65
  A 0.62 0.62 0.0 0 1 487.66 316.92
  L 502.50 316.92
  A 1.13 1.13 0.0 0 0 503.63 315.74
  Q 503.42 311.47 501.12 308.31
  C 498.15 304.22 492.56 303.15 488.45 306.04
  C 481.29 311.07 482.12 322.74 489.78 326.20
  Q 494.34 328.27 500.41 325.54
  A 1.96 1.95 -12.2 0 0 501.56 323.76
  L 501.56 323.07
  Z
  M 233.58 326.85
  A 1.50 1.50 0.0 0 0 235.31 325.39
  Q 235.52 314.96 235.70 313.56
  Q 235.89 311.99 236.94 309.54
  A 1.65 1.65 0.0 0 1 237.80 308.68
  Q 241.64 306.98 244.38 308.15
  A 0.81 0.81 0.0 0 0 245.51 307.38
  Q 245.41 303.94 242.52 304.45
  Q 240.98 304.71 236.94 305.67
  A 3.46 3.41 43.8 0 1 235.43 305.69
  L 232.85 305.15
  A 0.67 0.66 5.7 0 0 232.05 305.80
  L 231.99 324.94
  A 1.94 1.93 -83.9 0 0 233.51 326.83
  L 233.58 326.85
  Z
  M 245.81 315.93
  C 245.89 322.09 250.09 327.77 256.79 326.96
  Q 257.79 326.84 261.99 325.48
  A 2.15 2.15 0.0 0 1 263.51 325.57
  L 265.36 326.41
  A 1.14 1.13 -79.4 0 0 266.96 325.31
  Q 266.84 323.40 266.75 315.69
  Q 266.67 307.97 266.74 306.06
  A 1.14 1.13 78.1 0 0 265.11 305.00
  L 263.28 305.88
  A 2.15 2.15 0.0 0 1 261.76 306.00
  Q 257.54 304.73 256.54 304.64
  C 249.82 303.99 245.74 309.76 245.81 315.93
  Z
  M 345.45 316.02
  C 345.54 322.21 349.78 327.90 356.52 327.07
  Q 357.52 326.95 361.73 325.57
  A 2.16 2.16 0.0 0 1 363.26 325.65
  L 365.12 326.49
  A 1.14 1.14 0.0 0 0 366.72 325.38
  Q 366.60 323.46 366.49 315.71
  Q 366.38 307.96 366.44 306.04
  A 1.14 1.14 0.0 0 0 364.81 304.98
  L 362.97 305.87
  A 2.16 2.16 0.0 0 1 361.45 305.99
  Q 357.20 304.74 356.19 304.65
  C 349.44 304.01 345.36 309.82 345.45 316.02
  Z
  M 403.35 315.85
  C 403.36 321.97 407.48 327.65 414.14 326.91
  Q 415.14 326.81 419.31 325.50
  A 2.14 2.14 0.0 0 1 420.83 325.59
  L 422.65 326.45
  A 1.13 1.12 -78.9 0 0 424.25 325.37
  Q 424.16 323.47 424.14 315.81
  Q 424.13 308.15 424.22 306.25
  A 1.13 1.12 78.7 0 0 422.61 305.18
  L 420.79 306.04
  A 2.14 2.14 0.0 0 1 419.28 306.15
  Q 415.10 304.85 414.10 304.75
  C 407.44 304.04 403.34 309.73 403.35 315.85
  Z
  M 454.8572 304.6175
  A 11.33 11.07 -82.1 0 0 442.3351 314.3185
  A 11.33 11.07 -82.1 0 0 451.7428 327.0625
  A 11.33 11.07 -82.1 0 0 464.2649 317.3615
  A 11.33 11.07 -82.1 0 0 454.8572 304.6175
  Z
  M 483.51 306.83
  L 482.92 305.81
  A 2.47 2.47 0.0 0 0 480.86 304.56
  Q 477.03 304.40 474.10 305.75
  A 1.04 0.97 -49.5 0 1 473.47 305.82
  L 470.99 305.31
  A 1.00 1.00 0.0 0 0 469.79 306.30
  L 469.89 325.09
  A 1.72 1.72 0.0 0 0 471.58 326.80
  L 471.62 326.80
  A 1.70 1.69 87.3 0 0 473.28 324.97
  C 472.90 320.23 472.26 312.05 475.14 308.82
  Q 476.68 307.09 482.57 308.17
  A 0.90 0.90 0.0 0 0 483.51 306.83
  Z
  M 187.6134 306.2868
  A 1.49 1.49 0.0 0 0 186.1286 304.7916
  L 185.2686 304.7886
  A 1.49 1.49 0.0 0 0 183.7734 306.2734
  L 183.7066 325.4132
  A 1.49 1.49 0.0 0 0 185.1914 326.9084
  L 186.0514 326.9114
  A 1.49 1.49 0.0 0 0 187.5466 325.4266
  L 187.6134 306.2868
  Z
  M 391.03 326.93
  Q 392.63 326.93 393.08 325.84
  Q 396.89 316.58 400.96 306.42
  A 1.22 1.22 0.0 0 0 399.88 304.75
  L 399.82 304.75
  A 2.39 2.37 11.9 0 0 397.51 306.24
  Q 394.46 313.87 391.34 321.69
  Q 391.27 321.86 391.04 321.86
  Q 390.81 321.86 390.74 321.69
  Q 387.65 313.86 384.62 306.22
  A 2.39 2.37 -11.7 0 0 382.32 304.72
  L 382.26 304.72
  A 1.22 1.22 0.0 0 0 381.17 306.38
  Q 385.21 316.56 388.99 325.83
  Q 389.43 326.93 391.03 326.93
  Z"
/>
<path d="
  M 273.21 260.88
  L 274.88 252.87
  A 2.65 2.65 0.0 0 1 277.10 250.79
  C 279.44 250.47 285.03 250.53 286.43 252.21
  C 287.54 253.55 287.40 256.93 286.16 258.45
  C 283.08 262.20 278.50 262.56 273.90 261.86
  A 0.83 0.83 0.0 0 1 273.21 260.88
  Z"
/>
<path d="
  M 153.40 256.33
  A 0.62 0.62 0.0 0 1 154.32 256.76
  L 156.41 268.92
  A 1.16 1.16 0.0 0 1 155.44 270.27
  Q 151.10 270.91 146.67 270.08
  A 0.53 0.53 0.0 0 1 146.32 269.29
  Q 150.36 262.45 152.90 256.90
  Q 153.07 256.53 153.40 256.33
  Z"
/>
<path d="
  M 342.46 275.23
  A 1.18 1.18 0.0 0 1 342.02 276.84
  L 341.87 276.93
  A 9.08 6.88 -30.0 0 1 330.56 275.51
  L 330.51 275.43
  A 9.08 6.88 -30.0 0 1 334.94 264.93
  L 335.09 264.84
  A 1.18 1.18 0.0 0 1 336.71 265.27
  L 342.46 275.23
  Z"
/>
<path d="
  M 215.50 303.80
  L 219.90 315.16
  A 0.94 0.94 0.0 0 1 219.02 316.44
  L 210.54 316.44
  A 0.94 0.94 0.0 0 1 209.65 315.18
  L 213.74 303.82
  A 0.94 0.94 0.0 0 1 215.50 303.80
  Z"
/>
<path d="
  M 487.85 313.90
  A 0.43 0.43 0.0 0 1 487.43 313.46
  L 487.43 313.34
  A 6.11 6.09 1.2 0 1 493.67 307.38
  L 493.69 307.38
  A 6.11 6.09 1.2 0 1 499.67 313.60
  L 499.67 313.72
  A 0.43 0.43 0.0 0 1 499.23 314.14
  L 487.85 313.90
  Z"
/>
<ellipse cx="0.00" cy="0.00" transform="translate(256.19,315.75) rotate(-88.5)" rx="8.17" ry="7.19"/>
<ellipse cx="0.00" cy="0.00" transform="translate(356.03,315.74) rotate(-90.3)" rx="8.06" ry="7.05"/>
<ellipse cx="0.00" cy="0.00" transform="translate(453.30,315.87) rotate(-91.7)" rx="8.26" ry="7.72"/>
<ellipse cx="0.00" cy="0.00" transform="translate(166.62,315.77) rotate(-89.2)" rx="7.92" ry="7.03"/>
<ellipse cx="0.00" cy="0.00" transform="translate(295.71,315.82) rotate(-91.9)" rx="8.03" ry="7.54"/>
<ellipse cx="0.00" cy="0.00" transform="translate(413.79,315.74) rotate(-89.0)" rx="8.20" ry="7.16"/>
</g>
<g fill="#056594">
<path d="
  M 279.56 104.02
  A 0.93 0.93 0.0 0 1 281.28 104.07
  Q 291.90 131.95 280.29 159.34
  Q 276.39 168.53 275.77 169.77
  A 0.66 0.65 -57.8 0 0 275.95 170.59
  Q 276.72 171.17 279.25 171.19
  Q 289.71 171.24 299.75 171.01
  C 304.37 170.90 308.65 171.33 312.07 175.50
  Q 315.88 180.14 313.82 186.14
  Q 311.62 192.55 304.69 193.15
  C 298.86 193.64 290.26 192.94 284.16 194.20
  Q 270.53 197.03 261.53 207.11
  C 259.12 209.81 257.70 212.38 255.26 216.23
  Q 254.53 217.38 252.02 217.56
  Q 249.85 217.72 229.66 217.35
  A 0.76 0.75 -77.5 0 1 228.99 216.29
  L 279.56 104.02
  Z"
/>
<path d="
  M 488.89 265.76
  A 1.07 1.07 0.0 0 1 489.94 267.05
  Q 488.26 274.88 487.01 281.52
  C 486.36 284.95 483.93 285.65 480.72 286.73
  Q 474.81 288.73 471.26 289.02
  C 462.10 289.78 453.08 286.25 449.85 277.13
  Q 445.64 265.25 452.37 253.42
  Q 456.65 245.91 463.28 242.20
  C 472.50 237.05 484.38 236.76 492.54 244.15
  A 1.99 1.99 0.0 0 1 493.04 246.40
  C 491.97 248.93 488.66 251.46 486.45 253.70
  A 1.85 1.84 38.5 0 1 484.13 253.96
  C 479.66 251.10 476.50 249.35 471.10 251.35
  Q 464.86 253.67 462.34 260.33
  C 458.85 269.57 463.58 279.96 474.98 277.24
  A 1.65 1.64 89.5 0 0 476.20 275.99
  L 478.12 266.73
  A 1.22 1.21 -84.2 0 1 479.31 265.76
  L 488.89 265.76
  Z"
/>
<path d="
  M 96.32 274.81
  Q 94.38 278.99 90.67 285.18
  Q 89.96 286.36 89.38 287.05
  A 3.13 3.10 19.8 0 1 86.99 288.16
  L 79.18 288.16
  A 1.13 1.12 -4.8 0 1 78.07 287.23
  L 69.99 240.23
  A 0.67 0.66 -4.7 0 1 70.65 239.46
  L 81.68 239.46
  A 0.89 0.89 0.0 0 1 82.56 240.22
  Q 85.67 261.05 86.30 265.47
  Q 86.65 267.97 87.31 269.30
  A 0.41 0.40 44.8 0 0 88.04 269.30
  L 101.73 241.02
  A 2.93 2.93 0.0 0 1 104.37 239.36
  L 114.62 239.36
  A 1.03 1.02 13.8 0 1 115.53 240.86
  Q 110.77 249.90 108.03 255.28
  C 106.17 258.91 107.76 264.13 108.60 269.31
  A 0.39 0.39 0.0 0 0 109.34 269.42
  Q 114.29 259.41 123.60 241.58
  C 124.50 239.84 125.50 239.41 127.42 239.37
  Q 129.85 239.32 136.88 239.47
  A 1.14 1.14 0.0 0 1 137.82 241.21
  Q 137.48 241.75 136.74 242.95
  Q 131.70 251.11 112.22 285.46
  Q 111.08 287.47 109.22 288.16
  A 0.76 0.75 34.1 0 1 108.95 288.21
  L 100.96 288.21
  A 1.43 1.43 0.0 0 1 99.55 287.02
  L 97.47 274.96
  A 0.61 0.61 0.0 0 0 96.32 274.81
  Z"
/>
<path d="
  M 124.04 285.97
  L 126.14 283.29
  A 0.96 0.80 84.8 0 0 126.23 283.16
  L 150.80 241.03
  A 3.38 3.37 -74.7 0 1 153.71 239.36
  L 161.36 239.36
  A 1.29 1.28 -4.8 0 1 162.63 240.43
  L 170.60 286.75
  A 1.29 1.29 0.0 0 1 169.33 288.25
  L 159.47 288.25
  A 1.64 1.64 0.0 0 1 157.83 286.61
  L 157.83 282.59
  A 1.57 1.57 0.0 0 0 156.26 281.02
  L 141.43 281.02
  A 2.13 2.11 14.9 0 0 139.59 282.08
  L 136.94 286.67
  A 3.15 3.14 -74.9 0 1 134.22 288.24
  L 125.15 288.24
  A 1.41 1.41 0.0 0 1 124.04 285.97
  Z
  M 153.40 256.33
  Q 153.07 256.53 152.90 256.90
  Q 150.36 262.45 146.32 269.29
  A 0.53 0.53 0.0 0 0 146.67 270.08
  Q 151.10 270.91 155.44 270.27
  A 1.16 1.16 0.0 0 0 156.41 268.92
  L 154.32 256.76
  A 0.62 0.62 0.0 0 0 153.40 256.33
  Z"
/>
<path d="
  M 187.11 251.14
  L 177.11 251.14
  A 1.20 1.20 0.0 0 1 175.94 249.70
  L 177.78 240.84
  A 1.77 1.77 0.0 0 1 179.51 239.43
  L 215.08 239.43
  A 1.05 1.05 0.0 0 1 216.11 240.70
  L 214.31 249.38
  A 2.36 2.36 0.0 0 1 212.00 251.26
  L 201.48 251.26
  A 0.83 0.82 -84.5 0 0 200.67 251.93
  Q 199.62 257.44 194.02 284.56
  Q 193.65 286.40 192.99 287.43
  A 1.67 1.66 -73.9 0 1 191.58 288.21
  L 181.75 288.21
  A 0.70 0.69 6.0 0 1 181.07 287.37
  L 188.29 252.59
  A 1.21 1.21 0.0 0 0 187.11 251.14
  Z"
/>
<path d="
  M 250.27 278.14
  L 248.40 287.12
  A 1.36 1.36 0.0 0 1 247.07 288.21
  L 213.70 288.21
  A 0.78 0.77 -83.9 0 1 212.95 287.27
  Q 217.85 264.52 222.31 241.99
  Q 222.33 241.89 222.40 241.13
  Q 222.58 239.40 224.68 239.40
  Q 236.48 239.41 256.95 239.51
  A 0.78 0.78 0.0 0 1 257.71 240.45
  L 255.83 249.47
  A 1.66 1.65 -84.2 0 1 254.21 250.80
  L 233.89 250.80
  A 1.31 1.30 5.7 0 0 232.61 251.84
  L 231.45 257.42
  A 0.91 0.91 0.0 0 0 232.34 258.52
  L 247.56 258.52
  A 1.13 1.13 0.0 0 1 248.67 259.88
  L 246.92 268.30
  A 0.81 0.80 5.7 0 1 246.13 268.94
  L 230.28 268.94
  A 1.56 1.55 -84.0 0 0 228.76 270.18
  L 227.55 276.01
  A 1.07 1.07 0.0 0 0 228.60 277.30
  L 249.59 277.30
  A 0.70 0.70 0.0 0 1 250.27 278.14
  Z"
/>
<path d="
  M 342.71 251.19
  A 0.59 0.59 0.0 0 0 342.20 252.07
  L 351.08 267.44
  A 0.49 0.49 0.0 0 0 351.91 267.48
  Q 354.48 263.85 355.66 259.31
  A 2.43 2.43 0.0 0 1 358.01 257.49
  L 364.64 257.49
  A 1.82 1.82 0.0 0 1 366.45 259.48
  Q 366.30 261.16 365.14 263.89
  Q 362.26 270.69 358.08 275.82
  Q 356.46 277.82 358.02 280.22
  Q 361.32 285.29 361.88 286.20
  A 1.33 1.33 0.0 0 1 360.74 288.22
  L 351.17 288.22
  A 1.39 1.39 0.0 0 1 350.00 287.58
  C 348.66 285.48 347.37 284.99 344.86 286.21
  C 337.38 289.88 327.94 290.72 321.00 285.60
  C 318.95 284.10 317.34 282.15 317.11 279.43
  Q 316.54 272.68 319.24 267.97
  Q 323.36 260.78 330.81 257.21
  A 1.10 1.10 0.0 0 0 331.33 255.75
  C 329.85 252.65 327.78 250.74 328.84 246.47
  Q 329.72 242.92 330.01 240.14
  A 0.78 0.78 0.0 0 1 330.79 239.44
  L 360.41 239.44
  A 1.09 1.08 -84.3 0 1 361.47 240.74
  L 359.63 249.60
  A 2.00 2.00 0.0 0 1 357.67 251.19
  L 342.71 251.19
  Z
  M 342.46 275.23
  L 336.71 265.27
  A 1.18 1.18 0.0 0 0 335.09 264.84
  L 334.94 264.93
  A 9.08 6.88 -30.0 0 0 330.51 275.43
  L 330.56 275.51
  A 9.08 6.88 -30.0 0 0 341.87 276.93
  L 342.02 276.84
  A 1.18 1.18 0.0 0 0 342.46 275.23
  Z"
/>
<path d="
  M 416.36 288.15
  L 386.00 288.15
  A 0.94 0.94 0.0 0 1 385.07 287.02
  L 394.79 240.21
  A 0.94 0.94 0.0 0 1 395.71 239.46
  L 406.08 239.46
  A 0.94 0.94 0.0 0 1 407.00 240.59
  L 399.76 275.47
  A 0.94 0.94 0.0 0 0 400.68 276.60
  L 418.36 276.60
  A 0.94 0.94 0.0 0 1 419.28 277.73
  L 417.28 287.40
  A 0.94 0.94 0.0 0 1 416.36 288.15
  Z"
/>
<path d="
  M 435.54 288.28
  L 425.23 288.28
  A 1.02 1.02 0.0 0 1 424.23 287.05
  L 433.96 240.21
  A 1.02 1.02 0.0 0 1 434.96 239.40
  L 445.26 239.40
  A 1.02 1.02 0.0 0 1 446.26 240.63
  L 436.54 287.47
  A 1.02 1.02 0.0 0 1 435.54 288.28
  Z"
/>
<path d="
  M 509.28 269.51
  L 505.69 286.79
  A 1.85 1.84 5.7 0 1 503.88 288.26
  L 494.10 288.26
  A 0.91 0.91 0.0 0 1 493.21 287.16
  L 502.79 240.99
  A 1.94 1.93 5.8 0 1 504.69 239.45
  L 514.87 239.45
  A 0.51 0.50 5.6 0 1 515.37 240.05
  L 512.12 255.68
  A 0.99 0.98 5.7 0 0 513.09 256.86
  L 528.66 256.86
  A 0.83 0.82 5.5 0 0 529.47 256.20
  L 532.71 240.60
  A 1.37 1.36 6.0 0 1 534.05 239.52
  L 544.18 239.52
  A 0.95 0.95 0.0 0 1 545.11 240.66
  Q 540.06 264.39 536.02 284.24
  Q 535.63 286.13 534.87 287.75
  A 0.95 0.95 0.0 0 1 534.02 288.28
  L 523.77 288.28
  A 0.82 0.82 0.0 0 1 522.97 287.30
  L 526.59 269.90
  A 0.76 0.76 0.0 0 0 525.84 268.99
  L 509.92 268.99
  A 0.66 0.65 -84.0 0 0 509.28 269.51
  Z"
/>
<path d="
  M 560.86 251.19
  L 550.85 251.19
  A 1.20 1.20 0.0 0 1 549.68 249.75
  L 551.52 240.89
  A 1.77 1.77 0.0 0 1 553.25 239.47
  L 588.84 239.47
  A 1.05 1.05 0.0 0 1 589.87 240.74
  L 588.07 249.42
  A 2.36 2.36 0.0 0 1 585.76 251.30
  L 575.24 251.31
  A 0.83 0.83 0.0 0 0 574.43 251.98
  Q 573.38 257.49 567.78 284.63
  Q 567.41 286.47 566.75 287.50
  A 1.67 1.67 0.0 0 1 565.34 288.28
  L 555.50 288.28
  A 0.70 0.69 6.0 0 1 554.82 287.44
  L 562.04 252.64
  A 1.21 1.21 0.0 0 0 560.86 251.19
  Z"
/>
<path d="
  M 294.47 287.84
  A 0.48 0.48 0.0 0 1 293.99 288.29
  L 283.18 288.29
  A 2.07 2.06 -6.7 0 1 281.17 286.71
  L 278.24 274.47
  A 1.70 1.70 0.0 0 0 276.90 273.20
  Q 273.69 272.62 271.48 273.05
  A 1.10 1.09 -89.6 0 0 270.62 273.90
  L 267.94 286.80
  A 1.82 1.82 0.0 0 1 266.16 288.25
  L 256.42 288.25
  A 0.89 0.89 0.0 0 1 255.55 287.18
  L 265.24 240.50
  A 1.31 1.30 5.4 0 1 266.51 239.46
  Q 274.28 239.37 284.00 239.41
  C 293.44 239.45 300.50 243.80 299.79 254.33
  Q 299.13 263.88 291.07 268.84
  A 2.67 2.66 -25.4 0 0 289.95 271.97
  Q 293.07 281.04 294.34 286.47
  Q 294.50 287.18 294.47 287.84
  Z
  M 273.90 261.86
  C 278.50 262.56 283.08 262.20 286.16 258.45
  C 287.40 256.93 287.54 253.55 286.43 252.21
  C 285.03 250.53 279.44 250.47 277.10 250.79
  A 2.65 2.65 0.0 0 0 274.88 252.87
  L 273.21 260.88
  A 0.83 0.83 0.0 0 0 273.90 261.86
  Z"
/>
</g>
<g fill="#555756">
<path d="
  M 1.13 0.00
  L 1.93 0.37
  A 0.45 0.43 -79.3 0 1 2.20 0.78
  L 2.10 421.49
  A 0.19 0.15 38.0 0 0 2.12 421.57
  L 2.50 422.70
  A 0.74 0.73 70.5 0 1 2.07 423.61
  Q 1.66 423.77 1.50 424.00
  L 0.00 424.00
  L 0.00 421.54
  Q 0.12 421.49 0.24 421.44
  A 0.11 0.10 -14.9 0 0 0.30 421.35
  L 0.31 0.00
  L 1.13 0.00
  Z"
/>
<path d="
  M 369.01 216.81
  A 0.59 0.59 0.0 0 1 368.48 217.59
  C 355.69 218.13 342.47 216.47 336.84 203.41
  Q 326.90 180.35 325.26 176.78
  C 312.94 150.00 303.45 127.29 289.52 95.22
  Q 288.56 92.99 287.63 91.27
  A 1.00 1.00 0.0 0 1 288.48 89.80
  Q 291.28 89.72 296.25 89.85
  C 317.00 90.37 321.11 110.55 327.84 125.46
  Q 361.14 199.24 367.62 213.38
  Q 368.49 215.30 369.01 216.81
  Z"
/>
<path d="
  M 431.63 325.53
  L 431.63 309.58
  A 1.64 1.64 0.0 0 0 430.32 307.97
  L 428.92 307.68
  A 1.21 1.21 0.0 0 1 428.56 305.45
  L 430.72 304.21
  A 1.29 1.26 80.8 0 0 431.33 303.34
  Q 431.44 302.74 431.91 300.16
  A 1.66 1.64 -82.1 0 1 433.69 298.80
  Q 434.65 298.89 434.87 299.75
  Q 435.09 300.61 435.11 303.61
  A 1.28 1.28 0.0 0 0 436.39 304.88
  L 439.59 304.88
  A 1.34 1.33 -49.8 0 1 439.81 307.53
  L 436.09 308.17
  A 1.21 1.20 85.2 0 0 435.09 309.36
  L 435.09 325.54
  A 1.09 1.09 0.0 0 1 434.00 326.63
  L 432.72 326.63
  A 1.10 1.09 90.0 0 1 431.63 325.53
  Z"
/>
<path d="
  M 501.56 323.07
  L 501.56 323.76
  A 1.96 1.95 -12.2 0 1 500.41 325.54
  Q 494.34 328.27 489.78 326.20
  C 482.12 322.74 481.29 311.07 488.45 306.04
  C 492.56 303.15 498.15 304.22 501.12 308.31
  Q 503.42 311.47 503.63 315.74
  A 1.13 1.13 0.0 0 1 502.50 316.92
  L 487.66 316.92
  A 0.62 0.62 0.0 0 0 487.05 317.65
  Q 487.56 320.45 489.65 322.24
  Q 494.07 326.02 499.92 322.18
  A 1.06 1.06 0.0 0 1 501.56 323.07
  Z
  M 487.85 313.90
  L 499.23 314.14
  A 0.43 0.43 0.0 0 0 499.67 313.72
  L 499.67 313.60
  A 6.11 6.09 1.2 0 0 493.69 307.38
  L 493.67 307.38
  A 6.11 6.09 1.2 0 0 487.43 313.34
  L 487.43 313.46
  A 0.43 0.43 0.0 0 0 487.85 313.90
  Z"
/>
<path d="
  M 233.58 326.85
  L 233.51 326.83
  A 1.94 1.93 -83.9 0 1 231.99 324.94
  L 232.05 305.80
  A 0.67 0.66 5.7 0 1 232.85 305.15
  L 235.43 305.69
  A 3.46 3.41 43.8 0 0 236.94 305.67
  Q 240.98 304.71 242.52 304.45
  Q 245.41 303.94 245.51 307.38
  A 0.81 0.81 0.0 0 1 244.38 308.15
  Q 241.64 306.98 237.80 308.68
  A 1.65 1.65 0.0 0 0 236.94 309.54
  Q 235.89 311.99 235.70 313.56
  Q 235.52 314.96 235.31 325.39
  A 1.50 1.50 0.0 0 1 233.58 326.85
  Z"
/>
<path d="
  M 403.35 315.85
  C 403.34 309.73 407.44 304.04 414.10 304.75
  Q 415.10 304.85 419.28 306.15
  A 2.14 2.14 0.0 0 0 420.79 306.04
  L 422.61 305.18
  A 1.13 1.12 78.7 0 1 424.22 306.25
  Q 424.13 308.15 424.14 315.81
  Q 424.16 323.47 424.25 325.37
  A 1.13 1.12 -78.9 0 1 422.65 326.45
  L 420.83 325.59
  A 2.14 2.14 0.0 0 0 419.31 325.50
  Q 415.14 326.81 414.14 326.91
  C 407.48 327.65 403.36 321.97 403.35 315.85
  Z
  M 413.9331 307.5412
  A 8.20 7.16 -89.0 0 0 406.6311 315.6150
  A 8.20 7.16 -89.0 0 0 413.6469 323.9388
  A 8.20 7.16 -89.0 0 0 420.9489 315.8650
  A 8.20 7.16 -89.0 0 0 413.9331 307.5412
  Z"
/>
<path d="
  M 454.8572 304.6175
  A 11.33 11.07 -82.1 0 1 464.2649 317.3615
  A 11.33 11.07 -82.1 0 1 451.7428 327.0625
  A 11.33 11.07 -82.1 0 1 442.3351 314.3185
  A 11.33 11.07 -82.1 0 1 454.8572 304.6175
  Z
  M 453.0550 307.6136
  A 8.26 7.72 -91.7 0 0 445.5834 316.0990
  A 8.26 7.72 -91.7 0 0 453.5450 324.1264
  A 8.26 7.72 -91.7 0 0 461.0166 315.6410
  A 8.26 7.72 -91.7 0 0 453.0550 307.6136
  Z"
/>
<path d="
  M 483.51 306.83
  A 0.90 0.90 0.0 0 1 482.57 308.17
  Q 476.68 307.09 475.14 308.82
  C 472.26 312.05 472.90 320.23 473.28 324.97
  A 1.70 1.69 87.3 0 1 471.62 326.80
  L 471.58 326.80
  A 1.72 1.72 0.0 0 1 469.89 325.09
  L 469.79 306.30
  A 1.00 1.00 0.0 0 1 470.99 305.31
  L 473.47 305.82
  A 1.04 0.97 -49.5 0 0 474.10 305.75
  Q 477.03 304.40 480.86 304.56
  A 2.47 2.47 0.0 0 1 482.92 305.81
  L 483.51 306.83
  Z"
/>
</g>
<path fill="#0375a5" d="
  M 375.50 197.85
  A 0.61 0.61 0.0 0 1 376.07 197.00
  C 386.37 197.09 396.27 196.70 403.95 190.24
  C 408.44 186.46 410.19 178.50 407.18 173.04
  C 403.50 166.39 393.84 163.50 386.29 162.43
  Q 370.50 160.18 366.82 159.40
  C 362.16 158.41 357.47 157.94 355.85 154.43
  Q 352.80 147.86 340.30 119.45
  Q 338.90 116.26 336.95 112.57
  Q 336.20 111.15 337.44 109.19
  C 350.47 88.65 381.94 86.53 402.78 93.05
  Q 412.46 96.08 420.29 103.34
  A 1.29 1.29 0.0 0 1 420.52 104.92
  L 410.84 121.69
  A 1.24 1.24 0.0 0 1 408.87 121.93
  Q 393.54 106.15 371.30 110.69
  C 362.56 112.48 354.04 118.74 356.08 128.27
  Q 357.13 133.15 362.94 135.91
  C 367.55 138.09 373.07 139.70 378.52 140.45
  C 397.28 143.01 421.55 144.73 429.12 166.07
  C 435.68 184.54 428.08 203.54 410.17 211.67
  Q 398.07 217.17 384.56 217.40
  A 0.73 0.72 -4.0 0 1 383.83 216.77
  Q 383.62 215.09 382.85 213.64
  Q 379.60 207.54 375.50 197.85
  Z"
/>
<g fill="#696968">
<path d="
  M 173.50 306.27
  Q 173.57 305.92 173.41 298.27
  Q 173.37 296.49 174.04 295.76
  A 1.61 1.43 -37.6 0 1 176.58 295.94
  C 177.66 298.28 177.07 300.11 177.08 302.46
  Q 177.16 320.59 177.38 325.38
  A 1.29 1.29 0.0 0 1 175.65 326.65
  L 173.03 325.71
  A 1.94 1.91 44.2 0 0 171.70 325.72
  C 167.24 327.40 163.44 328.40 159.52 324.63
  C 154.75 320.04 154.72 311.07 159.93 306.69
  Q 163.12 304.01 167.77 304.32
  A 1.16 1.15 -29.9 0 1 168.26 304.45
  L 172.80 306.61
  A 0.50 0.49 18.8 0 0 173.50 306.27
  Z
  M 166.7306 307.8508
  A 7.92 7.03 -89.2 0 0 159.5907 315.6718
  A 7.92 7.03 -89.2 0 0 166.5094 323.6892
  A 7.92 7.03 -89.2 0 0 173.6493 315.8682
  A 7.92 7.03 -89.2 0 0 166.7306 307.8508
  Z"
/>
<rect x="-1.77" y="-15.72" transform="translate(374.99,311.05) rotate(-0.1)" width="3.54" height="31.44" rx="1.39"/>
<circle cx="185.52" cy="297.79" r="2.26"/>
<path d="
  M 214.84 296.61
  Q 216.13 296.61 216.74 298.02
  Q 222.40 311.17 227.68 325.03
  A 1.39 1.38 -10.1 0 1 226.37 326.90
  L 226.23 326.90
  A 2.64 2.62 -10.9 0 1 223.67 325.18
  L 222.20 321.14
  A 1.88 1.88 0.0 0 0 220.43 319.90
  Q 217.20 319.90 214.82 319.90
  Q 212.45 319.90 209.22 319.89
  A 1.88 1.88 0.0 0 0 207.44 321.13
  L 205.97 325.17
  A 2.64 2.62 10.9 0 1 203.40 326.88
  L 203.26 326.88
  A 1.39 1.38 10.2 0 1 201.96 325.01
  Q 207.26 311.16 212.94 298.01
  Q 213.55 296.61 214.84 296.61
  Z
  M 215.50 303.80
  A 0.94 0.94 0.0 0 0 213.74 303.82
  L 209.65 315.18
  A 0.94 0.94 0.0 0 0 210.54 316.44
  L 219.02 316.44
  A 0.94 0.94 0.0 0 0 219.90 315.16
  L 215.50 303.80
  Z"
/>
<path d="
  M 320.59 320.99
  L 320.61 320.92
  A 1.28 1.27 -68.0 0 1 322.53 320.10
  Q 330.95 325.36 335.75 322.55
  Q 338.07 321.19 338.29 318.96
  C 338.99 311.77 320.75 314.47 321.15 304.90
  C 321.55 295.26 333.34 295.47 339.76 299.00
  A 1.85 1.83 27.9 0 1 340.52 301.44
  L 340.48 301.53
  A 1.78 1.78 0.0 0 1 338.16 302.35
  Q 334.30 300.60 333.89 300.51
  Q 328.81 299.39 325.90 302.67
  A 2.85 2.78 76.3 0 0 325.38 303.55
  Q 324.07 307.25 328.03 308.51
  Q 334.30 310.50 336.83 311.39
  Q 341.85 313.17 342.01 318.22
  C 342.14 322.46 339.49 325.66 335.14 326.68
  Q 327.91 328.37 321.58 323.62
  A 2.62 2.62 0.0 0 1 320.59 320.99
  Z"
/>
<path d="
  M 276.42 326.60
  L 275.15 326.61
  A 1.10 1.09 90.0 0 1 274.06 325.51
  L 274.05 309.62
  A 1.64 1.64 0.0 0 0 272.74 308.02
  L 271.34 307.73
  A 1.21 1.20 -54.3 0 1 270.98 305.51
  L 273.13 304.27
  A 1.29 1.25 80.8 0 0 273.74 303.40
  Q 273.85 302.80 274.32 300.23
  A 1.65 1.63 -82.1 0 1 276.09 298.88
  Q 277.05 298.97 277.27 299.82
  Q 277.49 300.68 277.51 303.67
  A 1.28 1.28 0.0 0 0 278.78 304.93
  L 281.97 304.93
  A 1.33 1.33 0.0 0 1 282.19 307.57
  L 278.49 308.21
  A 1.20 1.20 0.0 0 0 277.49 309.40
  L 277.51 325.52
  A 1.09 1.09 0.0 0 1 276.42 326.60
  Z"
/>
<path d="
  M 307.08 315.81
  A 11.31 11.31 0.0 0 1 295.77 327.12
  A 11.31 11.31 0.0 0 1 284.46 315.81
  A 11.31 11.31 0.0 0 1 295.77 304.50
  A 11.31 11.31 0.0 0 1 307.08 315.81
  Z
  M 295.4438 307.7944
  A 8.03 7.54 -91.9 0 0 288.1741 316.0700
  A 8.03 7.54 -91.9 0 0 295.9762 323.8456
  A 8.03 7.54 -91.9 0 0 303.2459 315.5700
  A 8.03 7.54 -91.9 0 0 295.4438 307.7944
  Z"
/>
<path d="
  M 245.81 315.93
  C 245.74 309.76 249.82 303.99 256.54 304.64
  Q 257.54 304.73 261.76 306.00
  A 2.15 2.15 0.0 0 0 263.28 305.88
  L 265.11 305.00
  A 1.14 1.13 78.1 0 1 266.74 306.06
  Q 266.67 307.97 266.75 315.69
  Q 266.84 323.40 266.96 325.31
  A 1.14 1.13 -79.4 0 1 265.36 326.41
  L 263.51 325.57
  A 2.15 2.15 0.0 0 0 261.99 325.48
  Q 257.79 326.84 256.79 326.96
  C 250.09 327.77 245.89 322.09 245.81 315.93
  Z
  M 256.4039 307.5828
  A 8.17 7.19 -88.5 0 0 249.0025 315.5618
  A 8.17 7.19 -88.5 0 0 255.9761 323.9172
  A 8.17 7.19 -88.5 0 0 263.3775 315.9382
  A 8.17 7.19 -88.5 0 0 256.4039 307.5828
  Z"
/>
<path d="
  M 366.49 315.71
  Q 366.60 323.46 366.72 325.38
  A 1.14 1.14 0.0 0 1 365.12 326.49
  L 363.26 325.65
  A 2.16 2.16 0.0 0 0 361.73 325.57
  Q 357.52 326.95 356.52 327.07
  C 349.78 327.90 345.54 322.21 345.45 316.02
  C 345.36 309.82 349.44 304.01 356.19 304.65
  Q 357.20 304.74 361.45 305.99
  A 2.16 2.16 0.0 0 0 362.97 305.87
  L 364.81 304.98
  A 1.14 1.14 0.0 0 1 366.44 306.04
  Q 366.38 307.96 366.49 315.71
  Z
  M 355.9878 307.6801
  A 8.06 7.05 -90.3 0 0 348.9801 315.7769
  A 8.06 7.05 -90.3 0 0 356.0722 323.7999
  A 8.06 7.05 -90.3 0 0 363.0799 315.7031
  A 8.06 7.05 -90.3 0 0 355.9878 307.6801
  Z"
/>
<rect x="-1.92" y="-11.06" transform="translate(185.66,315.85) rotate(0.2)" width="3.84" height="22.12" rx="1.49"/>
<path d="
  M 391.04 321.86
  Q 391.27 321.86 391.34 321.69
  Q 394.46 313.87 397.51 306.24
  A 2.39 2.37 11.9 0 1 399.82 304.75
  L 399.88 304.75
  A 1.22 1.22 0.0 0 1 400.96 306.42
  Q 396.89 316.58 393.08 325.84
  Q 392.63 326.93 391.03 326.93
  Q 389.43 326.93 388.99 325.83
  Q 385.21 316.56 381.17 306.38
  A 1.22 1.22 0.0 0 1 382.26 304.72
  L 382.32 304.72
  A 2.39 2.37 -11.7 0 1 384.62 306.22
  Q 387.65 313.86 390.74 321.69
  Q 390.81 321.86 391.04 321.86
  Z"
/>
</g>
</svg>
